Wide-Medium.sfdir
StartChar: exclam
Encoding: 33 33 63
Width: 1000
Flags: MW
LayerCount: 2
Fore
SplineSet
447 53 m 0
 447 84 473 106 500 106 c 0
 527 106 552 84 552 53 c 0
 552 22 526 1 500 1 c 0
 469 1 447 27 447 53 c 0
447 664 m 0
 447 698 475 716 500 716 c 0
 526 716 553 697 553 664 c 0
 553 661 552 657 552 653 c 2
 514 211 l 2
 513 197 510 188 499 188 c 0
 488 188 487 202 486 215 c 2
 448 650 l 2
 448 655 447 660 447 664 c 0
EndSplineSet
EndChar
StartChar: quotedbl
Encoding: 34 34 64
Width: 1000
Flags: MW
LayerCount: 2
Fore
SplineSet
370 664 m 0
 370 701 400 710 416 710 c 0
 432 710 463 701 463 664 c 0
 463 653 429 359 428 347 c 1
 405 347 l 1
 399 409 379 580 372 642 c 2
 371 654 370 662 370 664 c 0
538 663 m 0
 538 695 560 710 584 710 c 0
 600 710 630 701 630 664 c 0
 630 662 629 650 627 632 c 6
 620 564 601 407 595 347 c 1
 573 347 l 1
 571 361 538 649 538 663 c 0
EndSplineSet
EndChar
StartChar: numbersign
Encoding: 35 35 65
Width: 1000
Flags: MW
LayerCount: 2
Fore
SplineSet
141 153 m 0
 141 164 156 164 167 164 c 2
 345 164 l 1
 392 336 l 1
 164 336 l 2
 153 336 141 337 141 347 c 0
 141 358 157 359 171 359 c 2
 399 359 l 1
 480 655 l 2
 484 669 488 692 500 692 c 0
 507 692 509 687 509 680 c 0
 509 670 505 658 503 650 c 2
 423 359 l 1
 638 359 l 1
 719 655 l 2
 723 669 727 692 738 692 c 0
 745 692 748 687 748 680 c 0
 748 670 744 658 741 650 c 2
 661 359 l 1
 834 359 l 2
 845 359 858 358 859 347 c 1
 858 336 844 336 833 336 c 2
 654 336 l 1
 608 164 l 1
 835 164 l 2
 846 164 859 163 859 153 c 0
 859 142 843 141 829 141 c 2
 601 141 l 1
 519 -155 l 2
 516 -169 512 -192 500 -192 c 0
 493 -192 491 -187 491 -180 c 0
 491 -171 495 -158 497 -150 c 2
 577 141 l 1
 362 141 l 1
 281 -155 l 2
 277 -169 273 -192 262 -192 c 0
 254 -192 252 -187 252 -180 c 0
 252 -171 256 -158 259 -150 c 2
 339 141 l 1
 166 141 l 2
 155 141 141 142 141 153 c 0
369 164 m 1
 584 164 l 1
 631 336 l 1
 416 336 l 1
 369 164 l 1
EndSplineSet
EndChar
StartChar: dollar
Encoding: 36 36 66
Width: 1000
Flags: MW
LayerCount: 2
Fore
SplineSet
268 177 m 0
 268 218 297 228 314 228 c 0
 337 228 360 210 360 183 c 0
 360 158 342 137 315 137 c 0
 309 137 304 138 298 139 c 1
 322 46 393 26 477 20 c 1
 477 319 l 1
 462 321 435 324 403 332 c 4
 366 344 326 366 297 412 c 0
 278 443 268 478 268 513 c 0
 268 585 317 690 477 705 c 1
 477 750 l 1
 523 750 l 1
 523 705 l 1
 703 695 731 584 731 530 c 0
 731 489 702 480 686 480 c 0
 662 480 640 498 640 525 c 0
 640 549 658 571 685 571 c 0
 690 571 695 570 701 569 c 1
 675 651 605 669 523 674 c 1
 523 403 l 1
 565 396 662 384 708 295 c 0
 724 264 732 229 732 195 c 0
 732 91 657 0 523 -10 c 1
 523 -55 l 1
 477 -55 l 1
 477 -10 l 1
 295 0 268 122 268 177 c 0
320 543 m 0
 320 479 367 439 412 423 c 0
 433 418 456 414 477 411 c 1
 477 673 l 1
 373 665 320 610 320 543 c 0
523 21 m 1
 635 32 680 100 680 165 c 0
 680 227 642 277 586 298 c 0
 566 304 544 307 523 311 c 1
 523 21 l 1
EndSplineSet
EndChar
StartChar: percent
Encoding: 37 37 67
Width: 1000
Flags: MW
LayerCount: 2
Fore
SplineSet
140 549 m 0
 140 666 211 750 287 750 c 0
 319 750 340 735 359 718 c 0
 414 666 476 641 546 641 c 0
 619 641 686 668 736 736 c 0
 742 743 747 750 757 750 c 0
 768 750 777 741 777 730 c 0
 777 724 775 721 769 712 c 2
 263 -41 l 2
 255 -52 253 -56 243 -56 c 0
 233 -56 223 -47 223 -36 c 0
 223 -34 223 -29 232 -16 c 2
 681 653 l 1
 680 654 l 1
 674 650 623 619 547 619 c 0
 511 619 461 624 396 661 c 1
 417 609 417 562 417 548 c 0
 417 436 360 347 287 347 c 0
 212 347 140 428 140 549 c 0
202 548 m 0
 202 382 268 369 288 369 c 0
 340 369 392 441 392 549 c 0
 392 654 341 728 288 728 c 0
 267 728 202 715 202 548 c 0
583 146 m 0
 583 263 654 347 730 347 c 0
 801 347 860 260 860 145 c 0
 860 33 803 -56 730 -56 c 0
 655 -56 583 25 583 146 c 0
645 145 m 0
 645 -21 711 -34 731 -34 c 0
 783 -34 835 38 835 146 c 0
 835 251 784 325 731 325 c 0
 710 325 645 312 645 145 c 0
EndSplineSet
EndChar
StartChar: ampersand
Encoding: 38 38 68
Width: 1000
Flags: MW
LayerCount: 2
Fore
SplineSet
158 128 m 0
 158 159 165 181 180 202 c 0
 192 219 208 235 228 255 c 1
 320 352 l 1
 285 441 278 513 278 555 c 0
 278 661 352 716 414 716 c 0
 485 716 502 633 502 587 c 0
 502 552 482 514 456 477 c 0
 433 445 405 413 380 385 c 1
 424 270 533 133 546 118 c 1
 589 171 633 239 688 336 c 0
 689 339 694 346 694 356 c 0
 694 381 670 400 624 400 c 1
 624 431 l 1
 651 429 735 428 746 428 c 0
 752 428 805 429 842 431 c 1
 842 400 l 1
 793 400 764 389 742 368 c 4
 724 351 712 327 694 298 c 0
 648 219 608 151 562 98 c 1
 594 60 646 9 700 9 c 0
 745 9 809 42 812 121 c 1
 836 121 l 1
 834 35 772 -22 696 -22 c 0
 648 -22 589 -6 520 54 c 1
 483 21 423 -22 338 -22 c 0
 239 -22 158 41 158 128 c 0
240 160 m 0
 240 106 263 9 346 9 c 0
 374 9 436 16 500 73 c 1
 463 110 427 162 408 190 c 0
 365 252 350 282 328 329 c 1
 274 277 240 241 240 160 c 0
342 578 m 0
 342 547 345 489 372 409 c 1
 396 435 476 522 476 588 c 0
 476 590 476 694 416 694 c 0
 381 694 342 662 342 578 c 0
EndSplineSet
EndChar
StartChar: quotesingle
Encoding: 39 39 69
Width: 1000
Flags: MW
LayerCount: 2
Fore
SplineSet
454 664 m 0
 454 697 479 710 500 710 c 0
 518 710 546 700 546 664 c 0
 546 655 544 639 543 627 c 2
 512 347 l 1
 489 347 l 1
 455 649 l 2
 455 654 454 659 454 664 c 0
EndSplineSet
EndChar
StartChar: parenleft
Encoding: 40 40 70
Width: 1000
Flags: MW
LayerCount: 2
Fore
SplineSet
712 250 m 0
 712 334 724 445 775 555 c 0
 834 682 924 750 934 750 c 0
 940 750 944 747 944 740 c 0
 944 737 944 735 931 723 c 0
 808 598 770 424 770 250 c 0
 770 173 778 87 802 4 c 4
 825 -78 865 -156 927 -218 c 0
 944 -235 944 -237 944 -240 c 0
 944 -247 940 -250 934 -250 c 0
 924 -250 838 -185 778 -62 c 0
 723 51 712 172 712 250 c 0
EndSplineSet
EndChar
StartChar: parenright
Encoding: 41 41 71
Width: 1000
Flags: MW
LayerCount: 2
Fore
SplineSet
57 -240 m 0
 57 -237 57 -235 70 -223 c 0
 194 -97 231 79 231 250 c 0
 231 459 174 618 76 717 c 0
 57 735 57 737 57 740 c 0
 57 746 61 750 67 750 c 0
 77 750 163 685 223 562 c 0
 278 449 289 328 289 250 c 0
 289 166 277 55 226 -55 c 0
 167 -182 77 -250 67 -250 c 0
 61 -250 57 -246 57 -240 c 0
EndSplineSet
EndChar
StartChar: asterisk
Encoding: 42 42 72
Width: 1000
Flags: MW
LayerCount: 2
Fore
SplineSet
230 144 m 0
 230 158 236 167 258 178 c 2
 478 285 l 1
 256 392 l 2
 235 402 230 412 230 425 c 0
 230 441 244 459 263 459 c 0
 270 459 273 458 290 445 c 2
 488 305 l 1
 487 323 473 503 470 551 c 2
 470 562 468 569 468 571 c 0
 468 587 482 602 501 602 c 0
 517 602 532 589 532 571 c 1
 530 554 l 2
 512 305 l 1
 693 435 l 2
 724 457 727 459 735 459 c 0
 754 459 768 441 768 425 c 0
 768 411 762 402 740 391 c 2
 522 284 l 1
 745 177 l 2
 766 167 770 157 770 144 c 0
 770 128 757 110 738 110 c 0
 728 110 724 115 718 118 c 0
 712 121 562 228 512 264 c 1
 513 254 520 157 523 114 c 2
 528 64 532 14 532 8 c 0
 532 -8 518 -22 499 -22 c 0
 483 -22 468 -10 468 8 c 1
 470 35 l 2
 488 264 l 1
 290 125 l 2
 270 110 l 1
 230 110 230 142 230 144 c 0
EndSplineSet
EndChar
StartChar: plus
Encoding: 43 43 73
Width: 1000
Flags: MW
LayerCount: 2
Fore
SplineSet
169 250 m 0
 169 261 181 261 207 261 c 2
 489 261 l 1
 489 544 l 2
 489 547 488 552 488 557 c 0
 488 568 490 581 500 581 c 0
 507 581 510 574 511 566 c 4
 511 563 512 560 512 557 c 2
 512 261 l 1
 794 261 l 2
 797 261 802 262 808 262 c 0
 819 262 831 260 831 250 c 0
 831 240 819 238 807 238 c 0
 802 238 797 239 794 239 c 2
 512 239 l 1
 512 -58 l 2
 512 -69 510 -81 500 -81 c 0
 490 -81 488 -68 488 -57 c 0
 488 -52 489 -47 489 -44 c 2
 489 239 l 1
 207 239 l 2
 203 239 198 238 192 238 c 0
 181 238 169 240 169 250 c 0
EndSplineSet
EndChar
StartChar: comma
Encoding: 44 44 74
Width: 1000
Flags: MW
LayerCount: 2
Fore
SplineSet
86 53 m 0
 86 79 104 106 139 106 c 0
 179 106 203 65 203 1 c 0
 203 -114 124 -193 112 -193 c 0
 107 -193 102 -189 102 -182 c 0
 102 -178 103 -177 109 -171 c 0
 153 -124 181 -63 181 1 c 0
 181 15 180 16 179 16 c 2
 177 14 l 1
 167 6 155 0 139 0 c 0
 103 0 86 27 86 53 c 0
EndSplineSet
EndChar
StartChar: hyphen
Encoding: 45 45 75
Width: 1000
Flags: MW
LayerCount: 2
Fore
SplineSet
367 186 m 1
 367 245 l 1
 633 245 l 1
 633 186 l 1
 367 186 l 1
EndSplineSet
EndChar
StartChar: period
Encoding: 46 46 76
Width: 1000
Flags: MW
LayerCount: 2
Fore
SplineSet
85 53 m 0
 85 80 107 105 138 105 c 0
 165 105 190 84 190 53 c 0
 190 22 164 0 138 0 c 0
 107 0 85 26 85 53 c 0
EndSplineSet
EndChar
StartChar: slash
Encoding: 47 47 77
Width: 1000
Flags: MW
LayerCount: 2
Fore
SplineSet
57 -236 m 0
 57 -233 58 -229 66 -220 c 2
 901 723 l 2
 906 729 921 748 932 748 c 0
 936 748 942 744 942 736 c 0
 942 732 937 726 934 723 c 2
 98 -221 l 2
 82 -238 74 -248 66 -248 c 0
 60 -248 57 -242 57 -236 c 0
EndSplineSet
EndChar
StartChar: one
Encoding: 49 49 1
Width: 1000
Flags: MW
LayerCount: 2
Fore
SplineSet
331 571 m 1
 331 602 l 1
 331 602 l 1
 367 602 450 606 512 659 c 0
 514 661 516 664 518 666 c 1
 541 666 542 664 542 640 c 2
 542 79 l 2
 542 59 543 46 559 39 c 4
 572 33 596 31 637 31 c 2
 669 31 l 1
 669 0 l 1
 634 3 546 3 504 3 c 0
 462 3 372 3 337 0 c 1
 337 31 l 1
 369 31 l 2
 418 31 443 34 455 42 c 0
 466 50 468 62 468 79 c 2
 468 597 l 1
 416 574 355 571 331 571 c 1
 331 571 l 1
EndSplineSet
EndChar
StartChar: four
Encoding: 52 52 4
Width: 1000
Flags: MW
LayerCount: 2
Fore
SplineSet
240 165 m 1
 240 196 l 1
 624 665 l 2
 632 677 635 677 644 677 c 0
 660 677 660 671 660 651 c 2
 660 196 l 1
 760 196 l 1
 760 165 l 1
 660 165 l 1
 660 78 l 2
 660 58 661 46 674 39 c 4
 685 33 703 31 736 31 c 2
 756 31 l 1
 756 0 l 1
 715 3 662 3 620 3 c 0
 573 3 496 3 434 0 c 1
 434 31 l 1
 466 31 l 2
 529 31 557 34 570 44 c 0
 579 51 580 63 580 78 c 2
 580 165 l 1
 240 165 l 1
268 196 m 1
 588 196 l 1
 588 569 l 1
 268 196 l 1
EndSplineSet
EndChar
StartChar: six
Encoding: 54 54 6
Width: 1000
Flags: MW
LayerCount: 2
Fore
SplineSet
234 316 m 0
 234 537 391 666 583 666 c 0
 642 666 682 653 707 632 c 4
 730 613 741 587 741 558 c 0
 741 519 711 510 695 510 c 0
 671 510 635 525 635 556 c 0
 635 601 689 601 704 601 c 1
 682 635 622 641 586 641 c 0
 541 641 457 628 395 565 c 0
 353 522 324 455 324 352 c 2
 324 328 l 1
 353 376 409 427 511 427 c 0
 677 427 766 331 766 204 c 0
 766 72 668 -22 502 -22 c 0
 416 -22 321 4 279 85 c 1
 252 137 234 212 234 316 c 0
326 226 m 0
 326 208 326 128 353 81 c 0
 362 66 408 6 502 6 c 0
 536 6 605 11 650 71 c 0
 676 107 676 157 676 205 c 0
 676 254 676 305 649 342 c 0
 603 404 533 404 509 404 c 0
 374 404 326 304 326 226 c 0
EndSplineSet
EndChar
StartChar: seven
Encoding: 55 55 7
Width: 1000
Flags: MW
LayerCount: 2
Fore
SplineSet
238 470 m 1
 271 676 l 1
 296 676 l 1
 298 664 300 654 330 649 c 1
 349 646 388 644 457 644 c 2
 762 644 l 1
 762 623 753 620 743 609 c 2
 586 419 l 2
 530 350 513 294 505 272 c 0
 481 209 475 139 475 84 c 2
 475 33 l 2
 475 26 476 5 463 -9 c 0
 456 -17 445 -22 429 -22 c 0
 413 -22 403 -17 396 -9 c 0
 383 5 383 26 383 33 c 0
 383 178 453 296 559 436 c 2
 658 567 l 1
 400 567 l 2
 380 567 295 567 288 561 c 0
 275 549 266 486 263 470 c 1
 238 470 l 1
EndSplineSet
EndChar
StartChar: nine
Encoding: 57 57 9
Width: 1000
Flags: MW
LayerCount: 2
Fore
SplineSet
234 441 m 0
 234 516 257 558 298 603 c 1
 350 648 423 666 505 666 c 0
 639 666 766 598 766 329 c 0
 766 114 626 -22 424 -22 c 0
 368 -22 326 -11 299 8 c 0
 272 27 259 53 259 86 c 0
 259 125 289 134 305 134 c 0
 327 134 351 119 351 88 c 0
 351 71 343 42 299 42 c 1
 304 35 311 30 319 26 c 4
 352 8 402 6 423 6 c 0
 476 6 555 22 611 83 c 0
 650 125 676 190 676 286 c 2
 676 318 l 1
 642 260 581 218 489 218 c 0
 322 218 234 316 234 441 c 0
324 440 m 0
 324 391 324 341 351 304 c 0
 397 241 466 241 490 241 c 0
 622 241 673 338 673 421 c 0
 673 467 667 530 649 562 c 0
 623 607 574 641 505 641 c 0
 453 641 395 628 355 578 c 0
 323 541 324 494 324 440 c 0
EndSplineSet
EndChar
StartChar: colon
Encoding: 58 58 78
Width: 1000
Flags: MW
LayerCount: 2
Fore
SplineSet
447 53 m 0
 447 82 471 106 500 106 c 0
 529 106 553 82 553 53 c 0
 553 24 529 0 500 0 c 0
 471 0 447 24 447 53 c 0
447 378 m 0
 447 407 471 431 500 431 c 0
 529 431 553 407 553 378 c 0
 553 349 529 325 500 325 c 0
 471 325 447 349 447 378 c 0
EndSplineSet
EndChar
StartChar: semicolon
Encoding: 59 59 79
Width: 1000
Flags: MW
LayerCount: 2
Fore
SplineSet
442 53 m 0
 442 79 460 106 495 106 c 0
 535 106 559 65 559 1 c 0
 559 -114 480 -193 468 -193 c 0
 463 -193 458 -189 458 -182 c 0
 458 -178 459 -177 465 -171 c 0
 509 -124 537 -63 537 1 c 0
 537 15 536 16 535 16 c 2
 533 14 l 1
 523 6 511 0 495 0 c 0
 459 0 442 27 442 53 c 0
441 378 m 0
 441 405 463 430 494 430 c 0
 521 430 546 409 546 378 c 0
 546 347 520 325 494 325 c 0
 463 325 441 351 441 378 c 0
EndSplineSet
EndChar
StartChar: less
Encoding: 60 60 80
Width: 1000
Flags: MW
LayerCount: 2
Fore
SplineSet
197 250 m 1
 198 259 207 263 213 266 c 2
 768 519 l 2
 776 523 785 529 793 529 c 0
 798 529 803 525 803 519 c 0
 803 510 792 506 780 500 c 2
 292 276 l 2
 273 268 254 259 234 250 c 1
 254 241 273 232 292 224 c 2
 780 0 l 2
 798 -8 803 -11 803 -19 c 0
 803 -25 798 -29 793 -29 c 0
 785 -29 776 -23 768 -19 c 2
 213 234 l 2
 207 237 198 241 197 250 c 1
EndSplineSet
EndChar
StartChar: equal
Encoding: 61 61 81
Width: 1000
Flags: MW
LayerCount: 2
Fore
SplineSet
169 152 m 1
 171 164 180 164 189 164 c 2
 802 164 l 2
 815 164 831 165 831 153 c 0
 831 141 815 141 804 141 c 2
 196 141 l 2
 185 141 169 142 169 152 c 1
169 347 m 0
 169 352 172 359 190 359 c 2
 801 359 l 1
 814 358 831 359 831 347 c 0
 831 336 817 336 806 336 c 2
 189 336 l 2
 180 336 169 337 169 347 c 0
EndSplineSet
EndChar
StartChar: greater
Encoding: 62 62 82
Width: 1000
Flags: MW
LayerCount: 2
Fore
SplineSet
196 -19 m 0
 196 -11 202 -8 220 0 c 2
 708 224 l 2
 727 232 746 241 766 250 c 1
 746 259 727 268 708 276 c 2
 220 500 l 2
 209 505 196 510 196 519 c 0
 196 524 202 529 208 529 c 0
 216 529 224 523 232 519 c 2
 788 266 l 2
 793 263 804 259 804 250 c 0
 803 241 795 238 774 228 c 2
 232 -19 l 2
 224 -23 215 -29 208 -29 c 0
 202 -29 196 -25 196 -19 c 0
EndSplineSet
EndChar
StartChar: question
Encoding: 63 63 83
Width: 1000
Flags: MW
LayerCount: 2
Fore
SplineSet
291 572 m 0
 291 586 294 600 299 613 c 0
 319 663 376 705 486 705 c 0
 670 705 709 628 709 570 c 0
 709 528 688 492 661 472 c 0
 626 446 499 375 499 249 c 2
 499 214 l 2
 499 196 500 187 480 187 c 0
 462 187 462 193 462 211 c 2
 462 256 l 2
 462 317 494 409 592 481 c 1
 610 499 626 517 626 576 c 0
 626 615 626 683 481 683 c 0
 418 683 358 668 327 615 c 1
 341 615 383 615 383 570 c 0
 383 544 365 524 337 524 c 0
 314 524 291 538 291 572 c 0
430 53 m 0
 430 82 451 106 480 106 c 0
 509 106 533 82 533 53 c 0
 533 24 509 0 480 0 c 0
 451 0 430 24 430 53 c 0
EndSplineSet
EndChar
StartChar: at
Encoding: 64 64 84
Width: 1000
Flags: MW
LayerCount: 2
Fore
SplineSet
168 347 m 0
 168 546 317 705 500 705 c 0
 661 705 832 572 832 338 c 0
 832 231 818 128 730 128 c 0
 692 128 640 147 630 199 c 1
 600 157 552 128 498 128 c 0
 395 128 300 221 300 347 c 0
 300 473 395 566 498 566 c 0
 537 566 590 552 636 489 c 0
 642 482 642 481 658 481 c 2
 676 481 l 2
 699 481 700 480 700 457 c 2
 700 216 l 2
 700 201 699 150 734 150 c 0
 800 150 808 240 808 332 c 0
 808 573 637 683 500 683 c 0
 336 683 192 538 192 347 c 0
 192 168 322 11 504 11 c 0
 598 11 691 35 776 75 c 0
 781 78 784 78 800 78 c 2
 808 78 l 2
 824 78 832 78 832 68 c 0
 832 66 828 63 824 60 c 4
 798 42 708 16 686 11 c 0
 622 -4 558 -11 506 -11 c 0
 306 -11 168 159 168 347 c 0
370 347 m 0
 370 236 430 150 502 150 c 0
 522 150 572 156 616 219 c 0
 630 240 630 244 630 262 c 2
 630 432 l 2
 630 450 631 453 618 472 c 0
 582 528 534 544 502 544 c 0
 429 544 370 458 370 347 c 0
EndSplineSet
EndChar
StartChar: A
Encoding: 65 65 10
Width: 1000
Flags: MW
LayerCount: 2
Fore
SplineSet
157.5 0 m 1
 157.5 31 l 1
 170.5 31 182.5 32 193.5 34 c 4
 229.5 41 255.5 59 269.5 98 c 2
 476.5 696 l 2
 481.5 710 484.5 716 500.5 716 c 0
 516.5 716 518.5 709 523.5 696 c 2
 739.5 71 l 2
 750.5 38 764.5 31 824.5 31 c 2
 842.5 31 l 1
 842.5 0 l 1
 800.5 2 754.5 3 711.5 3 c 0
 673.5 3 603.5 3 567.5 0 c 1
 567.5 31 l 1
 594.5 31 650.5 31 650.5 61 c 0
 650.5 65 648.5 71 647.5 75 c 2
 594.5 228 l 1
 347.5 228 l 1
 301.5 97 l 2
 300.5 95 299.5 85 299.5 82 c 0
 299.5 56 324.5 31 374.5 31 c 1
 374.5 0 l 1
 342.5 1 290.5 3 259.5 3 c 0
 223.5 3 180.5 1 157.5 0 c 1
358.5 259 m 1
 583.5 259 l 1
 470.5 584 l 1
 358.5 259 l 1
EndSplineSet
EndChar
StartChar: B
Encoding: 66 66 11
Width: 1000
Flags: MW
LayerCount: 2
Fore
SplineSet
192 0 m 1
 192 31 l 1
 216 31 l 2
 252 31 271 33 282 39 c 4
 294 46 296 59 296 78 c 2
 296 605 l 2
 296 624 294 637 282 644 c 0
 271 650 252 652 216 652 c 2
 192 652 l 1
 192 683 l 1
 558 683 l 2
 688 683 780 601 780 514 c 0
 780 440 711 376 614 357 c 1
 725 345 808 270 808 183 c 0
 808 89 717 0 584 0 c 2
 192 0 l 1
378 71 m 2
 378 38 381 31 428 31 c 2
 552 31 l 2
 655 31 708 113 708 184 c 0
 708 227 690 282 650 315 c 0
 629 333 601 344 566 344 c 2
 378 344 l 1
 378 71 l 2
378 366 m 1
 524 366 l 2
 635 366 684 450 684 514 c 0
 684 567 649 652 552 652 c 2
 428 652 l 2
 381 652 378 645 378 612 c 2
 378 366 l 1
EndSplineSet
EndChar
StartChar: C
Encoding: 67 67 12
Width: 1000
Flags: MW
LayerCount: 2
Fore
SplineSet
196 342 m 0
 196 546 357 705 544 705 c 0
 640 705 691 655 728 619 c 1
 778 693 l 2
 786 705 790 705 794 705 c 0
 805 705 804 698 804 681 c 2
 804 444 l 2
 804 423 804 420 788 420 c 0
 774 420 774 423 772 437 c 0
 752 583 663 674 554 674 c 0
 515 674 424 660 362 576 c 0
 325 526 298 452 298 341 c 0
 298 237 322 165 356 116 c 4
 419 23 516 9 556 9 c 0
 665 9 772 91 780 234 c 0
 781 244 781 250 792 250 c 0
 805 250 804 243 804 233 c 0
 804 117 707 -22 544 -22 c 0
 358 -22 196 135 196 342 c 0
EndSplineSet
EndChar
StartChar: D
Encoding: 68 68 13
Width: 1000
Flags: MW
LayerCount: 2
Fore
SplineSet
164 0 m 1
 164 31 l 1
 188 31 l 2
 265 31 267 42 267 78 c 2
 267 605 l 2
 267 641 265 652 188 652 c 2
 164 652 l 1
 164 683 l 1
 530 683 l 2
 701 683 836 526 836 336 c 0
 836 148 698 0 530 0 c 2
 164 0 l 1
353 71 m 2
 353 38 355 31 402 31 c 2
 503 31 l 2
 604 31 661 89 681 116 c 0
 717 165 736 225 736 336 c 0
 736 414 727 500 684 559 c 0
 633 630 564 652 502 652 c 2
 402 652 l 2
 355 652 353 645 353 612 c 2
 353 71 l 2
EndSplineSet
EndChar
StartChar: E
Encoding: 69 69 14
Width: 1000
Flags: MW
LayerCount: 2
Fore
SplineSet
190.5 0 m 1
 190.5 31 l 1
 214.5 31 l 2
 291.5 31 293.5 42 293.5 78 c 2
 293.5 602 l 2
 293.5 638 291.5 649 214.5 649 c 2
 190.5 649 l 1
 190.5 680 l 1
 753.5 680 l 1
 781.5 455 l 1
 756.5 455 l 1
 740.5 594 713.5 649 560.5 649 c 2
 431.5 649 l 2
 384.5 649 382.5 642 382.5 609 c 2
 382.5 369 l 1
 472.5 369 l 2
 569.5 369 580.5 400 580.5 486 c 1
 605.5 486 l 1
 605.5 221 l 1
 580.5 221 l 1
 580.5 306 569.5 338 472.5 338 c 2
 382.5 338 l 1
 382.5 71 l 2
 382.5 38 384.5 31 431.5 31 c 2
 564.5 31 l 2
 736.5 31 759.5 104 784.5 258 c 1
 809.5 258 l 1
 767.5 0 l 1
 190.5 0 l 1
EndSplineSet
EndChar
StartChar: F
Encoding: 70 70 15
Width: 1000
Flags: MW
LayerCount: 2
Fore
SplineSet
212 0 m 1
 212 31 l 1
 236 31 l 2
 275 31 294 33 304 41 c 0
 314 48 314 60 314 78 c 2
 314 602 l 2
 314 621 313 633 302 640 c 0
 291 647 273 649 236 649 c 2
 212 649 l 1
 212 680 l 1
 760 680 l 1
 788 455 l 1
 764 455 l 1
 748 593 722 649 572 649 c 2
 452 649 l 2
 405 649 404 642 404 609 c 2
 404 356 l 1
 490 356 l 2
 586 356 596 389 596 473 c 1
 620 473 l 1
 620 208 l 1
 596 208 l 1
 596 293 586 325 490 325 c 2
 404 325 l 1
 404 79 l 2
 404 63 403 52 412 44 c 4
 423 35 446 31 498 31 c 2
 532 31 l 1
 532 0 l 1
 496 3 405 3 364 3 c 0
 325 3 247 3 212 0 c 1
EndSplineSet
EndChar
StartChar: G
Encoding: 71 71 16
Width: 1000
Flags: MW
LayerCount: 2
Fore
SplineSet
160 342 m 0
 160 547 322 705 508 705 c 0
 607 705 662 651 694 619 c 1
 744 693 l 2
 752 705 756 705 760 705 c 0
 771 705 770 698 770 681 c 2
 770 444 l 2
 770 423 770 420 754 420 c 0
 740 420 740 423 738 437 c 0
 718 584 627 674 520 674 c 0
 484 674 398 662 336 587 c 0
 295 538 264 461 264 342 c 0
 264 237 287 165 322 115 c 0
 386 24 484 9 526 9 c 0
 547 9 625 14 662 65 c 0
 674 81 682 103 682 130 c 2
 682 194 l 2
 682 215 680 228 662 235 c 0
 649 240 626 242 588 242 c 2
 556 242 l 1
 556 273 l 1
 592 270 678 270 718 270 c 0
 748 270 803 272 840 273 c 1
 840 242 l 1
 805 242 786 241 778 233 c 4
 771 227 770 216 770 198 c 2
 770 24 l 2
 770 9 771 1 762 1 c 0
 751 1 711 41 698 63 c 1
 664 4 583 -22 510 -22 c 0
 320 -22 160 137 160 342 c 0
EndSplineSet
EndChar
StartChar: H
Encoding: 72 72 17
Width: 1000
Flags: MW
LayerCount: 2
Fore
SplineSet
158.5 0 m 1
 158.5 31 l 1
 182.5 31 l 2
 259.5 31 261.5 42 261.5 78 c 2
 261.5 605 l 2
 261.5 641 259.5 652 182.5 652 c 2
 158.5 652 l 1
 158.5 683 l 1
 193.5 680 268.5 680 306.5 680 c 0
 344.5 680 418.5 680 453.5 683 c 1
 453.5 652 l 1
 429.5 652 l 2
 352.5 652 350.5 641 350.5 605 c 2
 350.5 371 l 1
 649.5 371 l 1
 649.5 605 l 2
 649.5 641 647.5 652 570.5 652 c 2
 546.5 652 l 1
 546.5 683 l 1
 581.5 680 656.5 680 694.5 680 c 0
 732.5 680 806.5 680 841.5 683 c 1
 841.5 652 l 1
 817.5 652 l 2
 740.5 652 738.5 641 738.5 605 c 2
 738.5 78 l 2
 738.5 42 740.5 31 817.5 31 c 2
 841.5 31 l 1
 841.5 0 l 1
 806.5 3 731.5 3 693.5 3 c 0
 655.5 3 581.5 3 546.5 0 c 1
 546.5 31 l 1
 570.5 31 l 2
 647.5 31 649.5 42 649.5 78 c 2
 649.5 340 l 1
 350.5 340 l 1
 350.5 78 l 2
 350.5 42 352.5 31 429.5 31 c 2
 453.5 31 l 1
 453.5 0 l 1
 418.5 3 343.5 3 305.5 3 c 0
 267.5 3 193.5 3 158.5 0 c 1
EndSplineSet
EndChar
StartChar: I
Encoding: 73 73 18
Width: 1000
Flags: MW
LayerCount: 2
Fore
SplineSet
348 0 m 1
 348 31 l 1
 374 31 l 2
 410 31 431 33 442 39 c 0
 455 46 456 59 456 78 c 2
 456 605 l 2
 456 624 455 637 442 644 c 0
 431 650 410 652 374 652 c 2
 348 652 l 1
 348 683 l 1
 383 680 461 680 500 680 c 0
 538 680 617 680 652 683 c 1
 652 652 l 1
 626 652 l 2
 583 652 564 649 554 640 c 0
 546 633 544 622 544 605 c 2
 544 78 l 2
 544 60 546 48 556 41 c 4
 567 34 586 31 626 31 c 2
 652 31 l 1
 652 0 l 1
 617 3 539 3 500 3 c 0
 462 3 383 3 348 0 c 1
EndSplineSet
EndChar
StartChar: J
Encoding: 74 74 19
Width: 1000
Flags: MW
LayerCount: 2
Fore
SplineSet
288 112 m 0
 288 156 322 170 344 170 c 0
 372 170 400 150 400 114 c 0
 400 88 388 58 336 58 c 1
 372 0 440 0 446 0 c 0
 499 0 549 56 549 148 c 2
 549 604 l 2
 549 639 549 652 451 652 c 2
 415 652 l 1
 415 683 l 1
 453 680 541 680 583 680 c 0
 630 680 668 681 712 683 c 1
 712 652 l 1
 649 652 635 652 635 611 c 2
 635 167 l 2
 635 133 635 131 634 123 c 0
 623 48 550 -22 448 -22 c 0
 359 -22 288 38 288 112 c 0
EndSplineSet
EndChar
StartChar: K
Encoding: 75 75 20
Width: 1000
Flags: MW
LayerCount: 2
Fore
SplineSet
148.5 0 m 1
 148.5 31 l 1
 172.5 31 l 2
 209.5 31 228.5 33 239.5 40 c 4
 250.5 47 251.5 59 251.5 78 c 2
 251.5 605 l 2
 251.5 624 250.5 636 239.5 643 c 0
 228.5 650 209.5 652 172.5 652 c 2
 148.5 652 l 1
 148.5 683 l 1
 183.5 680 258.5 680 296.5 680 c 0
 334.5 680 408.5 680 443.5 683 c 1
 443.5 652 l 1
 419.5 652 l 2
 378.5 652 359.5 649 349.5 641 c 0
 340.5 634 340.5 622 340.5 605 c 2
 340.5 287 l 1
 653.5 586 l 2
 661.5 593 671.5 603 671.5 619 c 0
 671.5 628 665.5 651 625.5 652 c 1
 625.5 683 l 1
 659.5 680 716.5 680 752.5 680 c 0
 779.5 680 811.5 680 837.5 683 c 1
 837.5 652 l 1
 828.5 652 819.5 651 811.5 650 c 0
 745.5 640 702.5 599 695.5 592 c 2
 515.5 419 l 1
 746.5 79 l 2
 772.5 40 791.5 32 832.5 31 c 0
 838.5 31 844.5 31 851.5 31 c 1
 851.5 0 l 1
 809.5 2 771.5 3 736.5 3 c 0
 698.5 3 628.5 3 593.5 0 c 1
 593.5 31 l 1
 613.5 31 652.5 31 652.5 61 c 0
 652.5 73 643.5 86 637.5 95 c 2
 456.5 363 l 1
 340.5 253 l 1
 340.5 78 l 2
 340.5 62 340.5 51 347.5 44 c 0
 356.5 34 375.5 31 419.5 31 c 2
 443.5 31 l 1
 443.5 0 l 1
 408.5 3 333.5 3 295.5 3 c 0
 257.5 3 183.5 3 148.5 0 c 1
EndSplineSet
EndChar
StartChar: L
Encoding: 76 76 21
Width: 1000
Flags: MW
LayerCount: 2
Fore
SplineSet
226 0 m 1
 226 31 l 1
 250 31 l 2
 289 31 308 33 318 41 c 4
 328 48 328 60 328 78 c 2
 328 605 l 2
 328 625 327 637 314 644 c 0
 303 650 285 652 250 652 c 2
 226 652 l 1
 226 683 l 1
 261 680 339 680 378 680 c 0
 419 680 510 680 546 683 c 1
 546 652 l 1
 512 652 l 2
 468 652 445 649 432 643 c 0
 417 635 418 622 418 604 c 2
 418 71 l 2
 418 38 419 31 466 31 c 2
 548 31 l 2
 724 31 739 156 750 258 c 1
 774 258 l 1
 746 0 l 1
 226 0 l 1
EndSplineSet
EndChar
StartChar: M
Encoding: 77 77 22
Width: 1000
Flags: MW
LayerCount: 2
Fore
SplineSet
79 0 m 1
 79 31 l 1
 97 31 112 33 124 35 c 0
 145 39 159 47 167 56 c 0
 182 72 182 91 182 105 c 2
 182 605 l 2
 182 641 180 652 103 652 c 2
 79 652 l 1
 79 683 l 1
 248 683 l 2
 271 683 274 683 283 661 c 2
 500 101 l 1
 719 664 l 2
 726 682 726 683 752 683 c 2
 921 683 l 1
 921 652 l 1
 897 652 l 2
 820 652 818 641 818 605 c 2
 818 78 l 2
 818 42 820 31 897 31 c 2
 921 31 l 1
 921 0 l 1
 884 3 817 3 778 3 c 0
 739 3 671 3 634 0 c 1
 634 31 l 1
 658 31 l 2
 735 31 737 42 737 78 c 2
 737 652 l 1
 736 652 l 1
 490 19 l 2
 486 8 483 0 472 0 c 0
 462 0 457 9 452 22 c 2
 211 644 l 1
 210 644 l 1
 210 105 l 2
 210 91 210 72 224 57 c 4
 232 48 246 39 268 35 c 0
 280 33 295 31 313 31 c 1
 313 0 l 1
 278 1 229 3 196 3 c 0
 163 3 114 1 79 0 c 1
EndSplineSet
EndChar
StartChar: N
Encoding: 78 78 23
Width: 1000
Flags: MW
LayerCount: 2
Fore
SplineSet
158 0 m 1
 158 31 l 1
 173 31 185 32 196 34 c 0
 218 37 232 44 242 52 c 0
 261 68 262 90 262 105 c 2
 262 627 l 2
 262 646 261 647 238 650 c 0
 223 651 203 652 188 652 c 2
 158 652 l 1
 158 683 l 1
 328 683 l 2
 347 683 349 682 358 670 c 2
 710 151 l 1
 710 578 l 2
 710 594 710 616 690 632 c 0
 681 640 667 646 646 649 c 0
 635 651 623 652 608 652 c 1
 608 683 l 1
 643 682 691 680 724 680 c 0
 757 680 807 682 842 683 c 1
 842 652 l 1
 826 652 813 651 802 649 c 0
 784 646 771 640 762 634 c 4
 740 618 738 594 738 578 c 2
 738 26 l 2
 738 7 738 0 724 0 c 0
 717 0 717 1 708 13 c 2
 300 613 l 2
 296 619 295 620 290 625 c 1
 290 105 l 2
 290 90 289 70 306 54 c 0
 316 45 331 37 356 33 c 0
 366 32 378 31 392 31 c 1
 392 0 l 1
 357 1 309 3 276 3 c 0
 243 3 193 1 158 0 c 1
EndSplineSet
EndChar
StartChar: O
Encoding: 79 79 24
Width: 1000
Flags: MW
LayerCount: 2
Fore
SplineSet
168 339 m 0
 168 545 321 705 500 705 c 0
 682 705 832 543 832 339 c 0
 832 137 682 -22 500 -22 c 0
 322 -22 168 134 168 339 c 0
270 353 m 0
 270 251 291 175 322 121 c 4
 370 37 441 4 500 4 c 0
 554 4 624 33 672 111 c 0
 706 166 730 244 730 353 c 0
 730 458 705 532 670 583 c 0
 621 655 551 680 500 680 c 0
 449 680 374 655 324 575 c 0
 292 525 270 453 270 353 c 0
EndSplineSet
EndChar
StartChar: P
Encoding: 80 80 25
Width: 1000
Flags: MW
LayerCount: 2
Fore
SplineSet
206 0 m 1
 206 31 l 1
 230 31 l 2
 269 31 288 33 298 41 c 0
 308 48 308 60 308 78 c 2
 308 605 l 2
 308 624 307 636 296 643 c 0
 285 650 267 652 230 652 c 2
 206 652 l 1
 206 683 l 1
 558 683 l 2
 695 683 794 595 794 497 c 0
 794 397 686 316 566 316 c 2
 398 316 l 1
 398 78 l 2
 398 62 397 51 404 44 c 4
 413 34 432 31 476 31 c 2
 500 31 l 1
 500 0 l 1
 465 3 390 3 352 3 c 0
 314 3 241 3 206 0 c 1
394 342 m 1
 532 342 l 2
 691 342 692 450 692 497 c 0
 692 546 691 652 532 652 c 2
 444 652 l 2
 397 652 394 645 394 612 c 2
 394 342 l 1
EndSplineSet
EndChar
StartChar: Q
Encoding: 81 81 26
Width: 1000
Flags: MW
LayerCount: 2
Fore
SplineSet
164.5 339 m 0
 164.5 545 317.5 705 496.5 705 c 0
 678.5 705 829.5 543 829.5 339 c 0
 829.5 188 744.5 60 626.5 7 c 1
 650.5 -57 675.5 -91 722.5 -91 c 0
 765.5 -91 807.5 -61 813.5 -7 c 0
 814.5 3 815.5 11 824.5 11 c 0
 835.5 11 835.5 0 835.5 -10 c 0
 835.5 -61 816.5 -194 714.5 -194 c 0
 621.5 -194 607.5 -102 592.5 -7 c 1
 563.5 -16 528.5 -22 497.5 -22 c 0
 315.5 -22 164.5 137 164.5 339 c 0
264.5 339 m 0
 264.5 109 376.5 36 430.5 16 c 1
 429.5 18 416.5 37 416.5 64 c 0
 416.5 105 447.5 148 498.5 148 c 0
 530.5 148 554.5 133 573.5 111 c 0
 589.5 92 601.5 68 611.5 42 c 1
 717.5 120 729.5 261 729.5 339 c 0
 729.5 429 712.5 498 686.5 550 c 0
 638.5 644 558.5 680 496.5 680 c 0
 435.5 680 352.5 644 304.5 544 c 0
 280.5 493 264.5 426 264.5 339 c 0
438.5 64 m 0
 438.5 49 446.5 3 497.5 3 c 0
 519.5 3 551.5 7 585.5 26 c 1
 579.5 56 571.5 81 557.5 99 c 4
 543.5 116 524.5 126 498.5 126 c 0
 459.5 126 438.5 93 438.5 64 c 0
EndSplineSet
EndChar
StartChar: R
Encoding: 82 82 27
Width: 1000
Flags: MW
LayerCount: 2
Fore
SplineSet
172 0 m 1
 172 31 l 1
 196 31 l 2
 235 31 254 33 264 41 c 0
 274 48 274 60 274 78 c 2
 274 605 l 2
 274 624 273 636 262 643 c 0
 251 650 233 652 196 652 c 2
 172 652 l 1
 172 683 l 1
 486 683 l 2
 633 683 746 599 746 503 c 0
 746 425 669 364 572 340 c 1
 627 321 676 288 694 224 c 1
 706 144 l 1
 720 51 729 0 778 0 c 0
 803 0 838 18 844 89 c 0
 845 96 845 105 856 105 c 0
 869 105 868 94 868 88 c 0
 868 60 852 -22 774 -22 c 0
 744 -22 689 -16 648 20 c 1
 607 58 606 98 606 163 c 0
 606 230 606 261 568 297 c 0
 533 331 492 331 476 331 c 2
 360 331 l 1
 360 78 l 2
 360 62 360 50 368 43 c 4
 377 34 398 31 440 31 c 2
 464 31 l 1
 464 0 l 1
 428 3 357 3 318 3 c 0
 279 3 208 3 172 0 c 1
360 353 m 1
 472 353 l 2
 620 353 644 434 644 503 c 0
 644 648 532 652 442 652 c 0
 422 652 392 652 382 650 c 0
 360 647 360 635 360 612 c 2
 360 353 l 1
EndSplineSet
EndChar
StartChar: S
Encoding: 83 83 28
Width: 1000
Flags: MW
LayerCount: 2
Fore
SplineSet
278 2 m 2
 278 202 l 2
 278 220 279 227 292 227 c 0
 295 227 303 227 304 217 c 0
 305 181 308 117 366 63 c 0
 419 14 495 9 524 9 c 0
 608 9 658 81 658 152 c 0
 658 185 647 218 626 244 c 1
 598 281 569 288 542 295 c 0
 472 312 421 324 410 328 c 0
 332 355 278 428 278 511 c 0
 278 617 363 705 474 705 c 0
 532 705 569 687 596 667 c 0
 611 656 624 645 634 635 c 1
 668 692 l 2
 675 704 677 705 684 705 c 0
 695 705 694 698 694 681 c 2
 694 480 l 2
 694 461 695 456 682 456 c 0
 671 456 671 462 670 468 c 0
 666 498 654 582 596 634 c 4
 568 659 529 677 474 677 c 0
 396 677 342 616 342 546 c 0
 342 488 382 434 444 419 c 2
 572 388 l 2
 656 368 722 286 722 186 c 0
 722 76 641 -22 524 -22 c 0
 435 -22 371 14 340 48 c 1
 307 -5 304 -8 304 -9 c 0
 297 -20 297 -22 290 -22 c 0
 279 -22 278 -15 278 2 c 2
EndSplineSet
EndChar
StartChar: T
Encoding: 84 84 29
Width: 1000
Flags: MW
LayerCount: 2
Fore
SplineSet
176 452 m 1
 194 677 l 1
 806 677 l 1
 824 452 l 1
 800 452 l 1
 786 613 771 646 620 646 c 0
 601 646 573 646 562 644 c 0
 544 640 544 626 544 606 c 2
 544 79 l 2
 544 61 545 49 560 41 c 4
 574 34 600 31 650 31 c 2
 690 31 l 1
 690 0 l 1
 649 3 546 3 500 3 c 0
 454 3 351 3 310 0 c 1
 310 31 l 1
 350 31 l 2
 407 31 434 35 446 44 c 0
 456 52 456 63 456 79 c 2
 456 606 l 2
 456 629 455 640 434 644 c 0
 424 646 398 646 380 646 c 0
 229 646 214 613 200 452 c 1
 176 452 l 1
EndSplineSet
EndChar
StartChar: U
Encoding: 85 85 30
Width: 1000
Flags: MW
LayerCount: 2
Fore
SplineSet
158 652 m 1
 158 683 l 1
 193 680 268 680 306 680 c 0
 344 680 419 680 454 683 c 1
 454 652 l 1
 430 652 l 2
 389 652 370 649 360 641 c 4
 351 634 350 622 350 605 c 2
 350 224 l 2
 350 34 469 9 516 9 c 0
 611 9 708 89 708 231 c 2
 708 578 l 2
 708 595 707 620 682 636 c 0
 671 643 657 648 636 650 c 0
 627 651 616 652 604 652 c 1
 604 683 l 1
 640 682 689 680 724 680 c 0
 758 680 806 682 842 683 c 1
 842 652 l 1
 830 652 819 651 810 650 c 0
 787 647 771 642 760 634 c 0
 738 618 738 594 738 574 c 2
 738 254 l 2
 738 214 739 205 736 185 c 0
 719 71 629 -22 514 -22 c 0
 378 -22 262 87 262 228 c 2
 262 605 l 2
 262 623 262 635 252 642 c 0
 242 650 221 652 182 652 c 2
 158 652 l 1
EndSplineSet
EndChar
StartChar: V
Encoding: 86 86 31
Width: 1000
Flags: MW
LayerCount: 2
Fore
SplineSet
144.5 652 m 1
 144.5 683 l 1
 180.5 682 223.5 680 271.5 680 c 0
 309.5 680 378.5 680 414.5 683 c 1
 414.5 652 l 1
 389.5 652 332.5 652 332.5 623 c 0
 332.5 621 332.5 619 338.5 605 c 2
 529.5 100 l 1
 712.5 582 l 2
 714.5 588 717.5 594 717.5 602 c 0
 717.5 625 696.5 651 644.5 652 c 1
 644.5 683 l 1
 670.5 682 728.5 680 758.5 680 c 0
 784.5 680 824.5 681 855.5 683 c 1
 855.5 652 l 1
 848.5 652 841.5 651 835.5 651 c 4
 781.5 645 759.5 618 746.5 585 c 2
 523.5 -3 l 2
 518.5 -17 516.5 -22 499.5 -22 c 0
 486.5 -22 481.5 -19 474.5 0 c 2
 242.5 614 l 2
 228.5 652 209.5 652 144.5 652 c 1
EndSplineSet
EndChar
StartChar: W
Encoding: 87 87 32
Width: 1000
Flags: MW
LayerCount: 2
Fore
SplineSet
44.5 652 m 1
 44.5 683 l 1
 85.5 682 128.5 680 166.5 680 c 0
 204.5 680 272.5 680 308.5 683 c 1
 308.5 652 l 1
 282.5 652 224.5 652 224.5 622 c 0
 224.5 619 226 612 226.5 609 c 2
 362.5 127 l 1
 481.5 556 l 1
 464.5 616 l 2
 454 653 431.5 652 374.5 652 c 1
 374.5 683 l 1
 415.5 682 458.5 680 496.5 680 c 0
 534.5 680 602.5 680 638.5 683 c 1
 638.5 652 l 1
 612.5 652 554.5 652 554.5 622 c 0
 554.5 617 556 611 557.5 607 c 2
 692.5 127 l 1
 822.5 579 l 2
 824 585 827.5 593 827.5 599 c 0
 827.5 618 812.5 651 745.5 652 c 1
 745.5 683 l 1
 771.5 682 835.5 680 864.5 680 c 0
 894.5 680 925.5 681 955.5 683 c 1
 955.5 652 l 1
 940.5 652 925.5 651 910.5 646 c 0
 887.5 638 866.5 620 855.5 585 c 2
 684.5 -2 l 2
 681 -15 678.5 -22 664.5 -22 c 0
 651.5 -22 648.5 -12 645.5 -3 c 2
 499.5 506 l 1
 354.5 -2 l 2
 351 -15 348.5 -22 334.5 -22 c 0
 321.5 -22 318.5 -12 315.5 -3 c 2
 135.5 610 l 2
 129.944769223 629.575575118 125.789111643 640.193881778 112 645.853466773 c 4
 99.7261669931 650.891122781 79.8197801662 652 44.5 652 c 1
EndSplineSet
EndChar
StartChar: Y
Encoding: 89 89 34
Width: 1000
Flags: MW
LayerCount: 2
Fore
SplineSet
136 652 m 1
 136 683 l 1
 178 681 224 680 266 680 c 0
 305 680 378 680 414 683 c 1
 414 652 l 1
 369 652 344 648 344 627 c 0
 344 622 345 620 352 610 c 2
 532 315 l 1
 698 583 l 2
 702 589 708 602 708 613 c 0
 708 633 691 652 650 652 c 1
 650 683 l 1
 676 682 735 680 766 680 c 0
 793 680 833 681 864 683 c 1
 864 652 l 1
 853 652 839 651 824 648 c 0
 804 644 783 637 764 620 c 0
 754 611 744 601 736 587 c 2
 542 273 l 1
 542 80 l 2
 542 41 545 31 622 31 c 2
 646 31 l 1
 646 0 l 1
 610 3 539 3 500 3 c 0
 461 3 390 3 354 0 c 1
 354 31 l 1
 378 31 l 2
 455 31 456 42 456 78 c 2
 456 273 l 1
 246 615 l 2
 237 629 232 638 218 644 c 4
 205 649 186 652 154 652 c 2
 136 652 l 1
EndSplineSet
EndChar
StartChar: Z
Encoding: 90 90 35
Width: 1000
Flags: MW
LayerCount: 2
Fore
SplineSet
248 17 m 0
 248 25 248 26 255 37 c 2
 644 652 l 1
 487 652 l 2
 323 652 293 571 286 458 c 1
 261 458 l 1
 272 683 l 1
 720 683 l 2
 740 683 746 683 746 667 c 0
 746 660 746 659 739 648 c 2
 351 34 l 1
 515 34 l 2
 700 34 719 128 727 267 c 1
 752 267 l 1
 735 0 l 1
 274 0 l 2
 253 0 248 0 248 17 c 0
EndSplineSet
EndChar
StartChar: bracketleft
Encoding: 91 91 85
Width: 1000
Flags: MW
LayerCount: 2
Fore
SplineSet
677 -250 m 1
 677 750 l 1
 978 750 l 1
 978 727 l 1
 744 727 l 1
 744 -227 l 1
 978 -227 l 1
 978 -250 l 1
 677 -250 l 1
EndSplineSet
EndChar
StartChar: backslash
Encoding: 92 92 86
Width: 1000
Flags: MW
LayerCount: 2
Fore
SplineSet
57 736 m 4
 57 744 63 748 67 748 c 0
 78 748 93 729 98 723 c 2
 933 -220 l 2
 941 -229 942 -233 942 -236 c 0
 942 -242 939 -248 933 -248 c 0
 925 -248 917 -238 901 -221 c 2
 65 723 l 2
 62 726 57 732 57 736 c 4
EndSplineSet
EndChar
StartChar: bracketright
Encoding: 93 93 87
Width: 1000
Flags: MW
LayerCount: 2
Fore
SplineSet
21 -227 m 1
 255 -227 l 1
 255 727 l 1
 21 727 l 1
 21 750 l 1
 322 750 l 1
 322 -250 l 1
 21 -250 l 1
 21 -227 l 1
EndSplineSet
EndChar
StartChar: asciicircum
Encoding: 94 94 88
Width: 1000
Flags: MW
LayerCount: 2
Fore
SplineSet
312 484 m 1
 500 628 l 1
 688 484 l 1
 672 463 l 1
 500 575 l 1
 328 463 l 1
 312 484 l 1
EndSplineSet
EndChar
StartChar: underscore
Encoding: 95 95 89
Width: 1000
Flags: MW
LayerCount: 2
Fore
SplineSet
84 -213 m 0
 84 -197 99 -193 114 -193 c 2
 885 -193 l 2
 899 -193 915 -195 915 -213 c 0
 915 -230 898 -232 887 -233 c 1
 113 -233 l 2
 89 -233 84 -221 84 -213 c 0
EndSplineSet
EndChar
StartChar: grave
Encoding: 96 96 90
Width: 1000
Flags: MW
LayerCount: 2
Fore
SplineSet
408 605 m 0
 408 622 421 642 442 642 c 0
 462 642 466 631 592 510 c 1
 578 490 l 1
 560 499 488 540 444 565 c 0
 435 570 408 581 408 605 c 0
EndSplineSet
EndChar
StartChar: a
Encoding: 97 97 36
Width: 1000
Flags: MW
LayerCount: 2
Fore
SplineSet
292.5 95 m 0
 292.5 139 317.5 191 392.5 225 c 1
 455.5 255 525.5 258 576.5 261 c 1
 576.5 298 l 2
 576.5 387 519.5 426 470.5 426 c 0
 438.5 426 389.5 415 362.5 380 c 1
 408.5 379 413.5 346 413.5 334 c 0
 413.5 308 395.5 288 367.5 288 c 0
 341.5 288 321.5 305 321.5 335 c 0
 321.5 357 329.5 377 342.5 394 c 4
 369.5 427 417.5 448 472.5 448 c 0
 520.5 448 570.5 432 609.5 393 c 0
 645.5 356 645.5 317 645.5 275 c 2
 645.5 75 l 2
 645.5 70 649.5 25 682.5 25 c 0
 695.5 25 707.5 27 707.5 11 c 0
 707.5 -6 695.5 -6 675.5 -6 c 2
 661.5 -6 l 2
 614.5 -6 587.5 36 583.5 76 c 1
 564.5 29 518.5 -11 452.5 -11 c 0
 389.5 -11 292.5 14 292.5 95 c 0
369.5 96 m 0
 369.5 46 410.5 11 459.5 11 c 0
 504.5 11 576.5 45 576.5 140 c 2
 576.5 240 l 1
 411.5 234 369.5 151 369.5 96 c 0
EndSplineSet
EndChar
StartChar: b
Encoding: 98 98 37
Width: 1000
Flags: MW
LayerCount: 2
Fore
SplineSet
253.5 652 m 1
 253.5 683 l 1
 397.5 694 l 1
 397.5 377 l 1
 413.5 395 456.5 442 534.5 442 c 0
 648.5 442 746.5 343 746.5 216 c 0
 746.5 87 642.5 -11 523.5 -11 c 0
 449.5 -11 407.5 39 392.5 62 c 1
 365.5 15 357.5 1 356.5 0 c 1
 331.5 0 l 1
 331.5 596 l 2
 331.5 645 323.5 652 253.5 652 c 1
400.5 114 m 2
 400.5 96 400.5 93 414.5 72 c 0
 438.5 35 474.5 11 519.5 11 c 0
 573.5 11 611.5 44 632.5 75 c 0
 661.5 120 663.5 180 663.5 217 c 0
 663.5 258 660.5 315 634.5 356 c 0
 610.5 394 574.5 420 529.5 420 c 0
 505.5 420 450.5 412 411.5 356 c 0
 400.5 340 400.5 339 400.5 320 c 2
 400.5 114 l 2
EndSplineSet
EndChar
StartChar: c
Encoding: 99 99 38
Width: 1000
Flags: MW
LayerCount: 2
Fore
SplineSet
309.5 216 m 0
 309.5 340 401.5 448 526.5 448 c 0
 603.5 448 679.5 409 679.5 341 c 0
 679.5 311 659.5 294 633.5 294 c 0
 605.5 294 587.5 314 587.5 340 c 0
 587.5 353 593.5 383 634.5 386 c 1
 599.5 422 536.5 423 527.5 423 c 0
 474.5 423 392.5 381 392.5 218 c 0
 392.5 57 480.5 14 533.5 14 c 0
 570.5 14 635.5 26 664.5 119 c 0
 666.5 125 668.5 129 677.5 129 c 0
 680.5 129 690.5 129 690.5 119 c 0
 690.5 109 658.5 -11 524.5 -11 c 0
 408.5 -11 309.5 88 309.5 216 c 0
EndSplineSet
EndChar
StartChar: d
Encoding: 100 100 39
Width: 1000
Flags: MW
LayerCount: 2
Fore
SplineSet
254 215 m 0
 254 344 358 442 476 442 c 0
 530 442 573 416 602 380 c 1
 602 596 l 2
 602 645 594 652 524 652 c 1
 524 683 l 1
 668 694 l 1
 668 87 l 2
 668 38 676 31 746 31 c 1
 746 0 l 1
 600 -11 l 1
 600 55 l 1
 575 23 530 -11 466 -11 c 0
 352 -11 254 88 254 215 c 0
336 214 m 0
 336 173 340 116 366 75 c 0
 390 37 425 11 470 11 c 0
 513 11 558 33 588 81 c 0
 599 98 600 100 600 118 c 2
 600 323 l 2
 600 341 599 343 588 360 c 0
 557 405 515 420 480 420 c 0
 426 420 389 387 368 356 c 0
 339 311 336 251 336 214 c 0
EndSplineSet
EndChar
StartChar: e
Encoding: 101 101 40
Width: 1000
Flags: MW
LayerCount: 2
Fore
SplineSet
306 220 m 0
 306 345 398 448 514 448 c 0
 563 448 602 433 630 409 c 4
 674 371 694 312 694 252 c 0
 694 231 690 231 668 231 c 2
 390 231 l 1
 390 195 390 129 420 81 c 0
 443 44 482 14 532 14 c 0
 542 14 633 14 668 117 c 0
 670 125 671 131 680 131 c 0
 685 131 694 129 694 119 c 0
 694 100 648 -11 526 -11 c 0
 411 -11 306 86 306 220 c 0
390 252 m 1
 628 252 l 1
 628 291 617 426 514 426 c 0
 493 426 451 416 422 371 c 0
 405 345 392 307 390 252 c 1
EndSplineSet
EndChar
StartChar: f
Encoding: 102 102 41
Width: 1000
Flags: MW
LayerCount: 2
Fore
SplineSet
358 400 m 1
 358 431 l 1
 437 431 l 1
 437 546 l 2
 437 652 522 705 592 705 c 0
 645 705 682 672 682 635 c 0
 682 611 667 591 638 591 c 0
 611 591 595 611 595 634 c 0
 595 659 613 672 625 676 c 1
 610 683 595 683 592 683 c 0
 548 683 500 635 500 547 c 2
 500 431 l 1
 617 431 l 1
 617 400 l 1
 503 400 l 1
 503 78 l 2
 503 42 505 31 579 31 c 2
 600 31 l 1
 600 0 l 1
 560 3 513 3 473 3 c 0
 445 3 398 1 359 0 c 1
 359 31 l 1
 426 31 437 31 437 76 c 2
 437 400 l 1
 358 400 l 1
EndSplineSet
EndChar
StartChar: g
Encoding: 103 103 42
Width: 1000
Flags: MW
LayerCount: 2
Fore
SplineSet
271.5 -79 m 0
 271.5 -39 303.5 4 363.5 21 c 1
 332.5 41 319.5 79 319.5 110 c 0
 319.5 145 337.5 178 350.5 193 c 1
 325.5 214 303.5 252 303.5 296 c 0
 303.5 373 372.5 442 465.5 442 c 0
 487.5 442 529.5 439 571.5 406 c 1
 613.5 447 657.5 453 677.5 453 c 0
 716.5 453 728.5 421 728.5 404 c 0
 728.5 381 709.5 374 699.5 374 c 0
 683.5 374 670.5 386 670.5 403 c 0
 670.5 415 675.5 426 686.5 430 c 1
 683.5 431 678.5 431 676.5 431 c 0
 658.5 431 622.5 426 586.5 392 c 1
 611.5 369 627.5 332 627.5 295 c 0
 627.5 218 558.5 149 465.5 149 c 0
 446.5 149 405.5 152 366.5 180 c 1
 349.5 160 349.5 137 349.5 133 c 0
 349.5 101 370.5 70 402.5 66 c 0
 409.5 65 452.5 65 477.5 65 c 0
 538.5 65 596.5 65 649.5 37 c 0
 700.5 9 714.5 -42 714.5 -77 c 0
 714.5 -155 610.5 -206 492.5 -206 c 0
 370.5 -206 271.5 -151 271.5 -79 c 0
323.5 -79 m 0
 323.5 -132 392.5 -183 493.5 -183 c 0
 591.5 -183 662.5 -133 662.5 -79 c 0
 662.5 7 550.5 7 464.5 7 c 2
 405.5 7 l 1
 361.5 4 323.5 -33 323.5 -79 c 0
378.5 295 m 0
 378.5 272 378.5 172 465.5 172 c 0
 505.5 172 528.5 200 536.5 212 c 0
 551.5 237 552.5 269 552.5 296 c 0
 552.5 319 552.5 419 465.5 419 c 0
 425.5 419 402.5 391 394.5 379 c 0
 379.5 354 378.5 322 378.5 295 c 0
EndSplineSet
EndChar
StartChar: h
Encoding: 104 104 43
Width: 1000
Flags: MW
LayerCount: 2
Fore
SplineSet
248 0 m 1
 248 31 l 1
 286 31 306 31 316 39 c 0
 324 45 326 56 326 76 c 2
 326 596 l 2
 326 645 318 652 248 652 c 1
 248 683 l 1
 392 694 l 1
 392 346 l 1
 394 346 l 1
 410 382 454 442 538 442 c 0
 596 442 628 422 642 405 c 0
 673 369 674 338 674 252 c 2
 674 61 l 1
 675 31 700 31 752 31 c 1
 752 0 l 1
 718 1 666 3 640 3 c 0
 613 3 561 1 526 0 c 1
 526 31 l 1
 564 31 584 31 594 39 c 4
 602 45 604 56 604 76 c 2
 604 309 l 2
 604 366 593 420 530 420 c 0
 466 420 396 364 396 260 c 2
 396 76 l 2
 396 56 397 44 406 38 c 0
 417 31 437 31 474 31 c 1
 474 0 l 1
 440 1 388 3 362 3 c 0
 335 3 283 1 248 0 c 1
EndSplineSet
EndChar
StartChar: i
Encoding: 105 105 44
Width: 1000
Flags: MW
LayerCount: 2
Fore
SplineSet
393 0 m 1
 393 31 l 1
 460 31 471 31 471 76 c 2
 471 345 l 2
 471 394 462 400 397 400 c 1
 397 431 l 1
 537 442 l 1
 537 75 l 2
 537 36 541 31 607 31 c 1
 607 0 l 1
 573 1 538 3 503 3 c 0
 479 3 425 1 393 0 c 1
435 616 m 0
 435 642 457 669 488 669 c 0
 516 669 541 648 541 616 c 0
 541 584 516 563 488 563 c 0
 457 563 435 589 435 616 c 0
EndSplineSet
EndChar
StartChar: j
Encoding: 106 106 45
Width: 1000
Flags: MW
LayerCount: 2
Fore
SplineSet
325 -125 m 0
 325 -99 343 -79 371 -79 c 0
 399 -79 417 -99 417 -125 c 0
 417 -152 397 -166 382 -170 c 1
 408 -183 431 -183 436 -183 c 0
 500 -183 509 -97 509 -52 c 2
 509 344 l 2
 509 374 506 389 485 395 c 4
 472 399 453 400 423 400 c 1
 423 431 l 1
 575 442 l 1
 575 -50 l 2
 575 -141 513 -205 438 -205 c 0
 381 -205 325 -177 325 -125 c 0
469 616 m 0
 469 645 493 669 522 669 c 0
 551 669 575 645 575 616 c 0
 575 587 551 563 522 563 c 0
 493 563 469 587 469 616 c 0
EndSplineSet
EndChar
StartChar: k
Encoding: 107 107 46
Width: 1000
Flags: MW
LayerCount: 2
Fore
SplineSet
258 0 m 1
 258 31 l 1
 293 31 313 31 324 38 c 0
 334 44 336 55 336 76 c 2
 336 596 l 2
 336 645 328 652 258 652 c 1
 258 683 l 1
 402 694 l 1
 402 214 l 1
 544 336 l 2
 552 343 566 355 566 375 c 0
 566 388 555 399 536 400 c 1
 536 431 l 1
 550 430 612 428 648 428 c 0
 676 428 689 428 718 431 c 1
 718 400 l 1
 697 399 655 397 592 346 c 0
 582 338 512 278 512 274 c 0
 512 271 517 265 518 263 c 2
 644 84 l 2
 675 41 696 33 722 31 c 2
 728 31 735 31 742 31 c 1
 742 0 l 1
 713 2 683 3 654 3 c 0
 633 3 574 1 546 0 c 1
 546 31 l 1
 565 31 582 35 582 54 c 0
 582 61 573 78 564 92 c 0
 526 149 511 169 464 234 c 1
 400 179 l 1
 400 76 l 2
 400 56 401 44 410 38 c 4
 421 31 441 31 478 31 c 1
 478 0 l 1
 438 2 398 3 368 3 c 0
 339 3 291 1 258 0 c 1
EndSplineSet
EndChar
StartChar: l
Encoding: 108 108 47
Width: 1000
Flags: MW
LayerCount: 2
Fore
SplineSet
389 0 m 1
 389 31 l 1
 456 31 467 31 467 76 c 2
 467 596 l 2
 467 645 459 652 389 652 c 1
 389 683 l 1
 533 694 l 1
 533 76 l 2
 533 31 544 31 611 31 c 1
 611 0 l 1
 574 1 525 3 500 3 c 0
 475 3 422 1 389 0 c 1
EndSplineSet
EndChar
StartChar: m
Encoding: 109 109 48
Width: 1000
Flags: MW
LayerCount: 2
Fore
SplineSet
110 0 m 1
 110 31 l 1
 145 31 165 31 176 38 c 0
 186 44 188 55 188 76 c 2
 188 344 l 2
 188 393 180 400 110 400 c 1
 110 431 l 1
 250 442 l 1
 250 337 l 1
 278 399 325 442 398 442 c 0
 443 442 518 431 532 344 c 1
 549 382 592 442 676 442 c 0
 734 442 768 422 782 405 c 0
 813 369 812 338 812 252 c 2
 812 61 l 1
 813 31 838 31 890 31 c 1
 890 0 l 1
 856 1 804 3 778 3 c 0
 751 3 701 1 666 0 c 1
 666 31 l 1
 699 31 719 31 730 37 c 4
 741 43 744 53 744 76 c 2
 744 309 l 2
 744 366 733 420 670 420 c 0
 606 420 534 364 534 260 c 2
 534 76 l 2
 534 54 538 43 548 37 c 0
 559 31 578 31 612 31 c 1
 612 0 l 1
 578 1 526 3 500 3 c 0
 473 3 423 1 388 0 c 1
 388 31 l 1
 428 31 448 31 458 41 c 0
 464 47 466 58 466 76 c 2
 466 309 l 2
 466 366 455 420 392 420 c 0
 328 420 256 364 256 260 c 2
 256 76 l 2
 256 53 260 41 272 36 c 0
 283 31 302 31 334 31 c 1
 334 0 l 1
 300 1 248 3 222 3 c 0
 195 3 145 1 110 0 c 1
EndSplineSet
EndChar
StartChar: n
Encoding: 110 110 49
Width: 1000
Flags: MW
LayerCount: 2
Fore
SplineSet
248.5 0 m 1
 248.5 31 l 1
 286.5 31 306.5 31 316.5 39 c 0
 324.5 45 326.5 56 326.5 76 c 2
 326.5 344 l 2
 326.5 393 318.5 400 248.5 400 c 1
 248.5 431 l 1
 389.5 442 l 1
 389.5 337 l 1
 417.5 399 464.5 442 537.5 442 c 0
 595.5 442 628.5 422 642.5 405 c 0
 673.5 369 673.5 338 673.5 252 c 2
 673.5 61 l 1
 674.5 31 699.5 31 751.5 31 c 1
 751.5 0 l 1
 717.5 1 665.5 3 639.5 3 c 0
 612.5 3 561.5 1 526.5 0 c 1
 526.5 31 l 1
 566.5 31 586.5 31 596.5 41 c 4
 602.5 47 604.5 58 604.5 76 c 2
 604.5 309 l 2
 604.5 366 593.5 420 530.5 420 c 0
 466.5 420 395.5 364 395.5 260 c 2
 395.5 76 l 2
 395.5 56 397.5 44 406.5 38 c 0
 417.5 31 436.5 31 473.5 31 c 1
 473.5 0 l 1
 439.5 1 387.5 3 361.5 3 c 0
 334.5 3 283.5 1 248.5 0 c 1
EndSplineSet
EndChar
StartChar: o
Encoding: 111 111 50
Width: 1000
Flags: MW
LayerCount: 2
Fore
SplineSet
278.5 214 m 0
 278.5 339 375.5 448 500.5 448 c 0
 621.5 448 721.5 342 721.5 214 c 0
 721.5 87 620.5 -11 499.5 -11 c 0
 382.5 -11 278.5 85 278.5 214 c 0
361.5 222 m 0
 361.5 186 361.5 125 386.5 81 c 0
 413.5 35 457.5 14 500.5 14 c 0
 550.5 14 594.5 43 616.5 88 c 0
 638.5 132 638.5 186 638.5 222 c 0
 638.5 260 638.5 318 612.5 361 c 0
 586.5 404 543.5 426 499.5 426 c 0
 459.5 426 412.5 405 385.5 359 c 1
 361.5 315 361.5 261 361.5 222 c 0
EndSplineSet
EndChar
StartChar: p
Encoding: 112 112 51
Width: 1000
Flags: MW
LayerCount: 2
Fore
SplineSet
254 -163 m 1
 294 -163 314 -163 324 -153 c 0
 330 -147 332 -136 332 -118 c 2
 332 350 l 2
 332 394 325 400 254 400 c 1
 254 431 l 1
 398 442 l 1
 398 376 l 1
 418 398 460 442 538 442 c 0
 650 442 746 343 746 216 c 0
 746 87 643 -11 524 -11 c 0
 448 -11 405 43 400 59 c 1
 400 50 l 1
 400 -118 l 2
 400 -138 403 -150 412 -156 c 4
 423 -163 441 -163 478 -163 c 1
 478 -194 l 1
 443 -193 393 -191 366 -191 c 0
 340 -191 288 -193 254 -194 c 1
 254 -163 l 1
400 114 m 2
 400 94 400 93 414 72 c 0
 441 31 480 11 520 11 c 0
 594 11 664 95 664 216 c 0
 664 329 603 417 530 417 c 0
 479 417 429 388 400 337 c 1
 400 337 l 1
 400 114 l 2
EndSplineSet
EndChar
StartChar: q
Encoding: 113 113 52
Width: 1000
Flags: MW
LayerCount: 2
Fore
SplineSet
254 215 m 0
 254 345 358 442 474 442 c 0
 554 442 595 379 608 351 c 1
 646 442 l 1
 668 442 l 1
 668 -118 l 2
 668 -141 672 -153 684 -158 c 4
 695 -163 714 -163 746 -163 c 1
 746 -194 l 1
 711 -193 661 -191 634 -191 c 0
 608 -191 556 -193 522 -194 c 1
 522 -163 l 1
 557 -163 577 -163 588 -156 c 0
 598 -150 600 -139 600 -118 c 2
 600 61 l 1
 578 32 536 -11 466 -11 c 0
 350 -11 254 90 254 215 c 0
336 215 m 0
 336 100 397 11 470 11 c 0
 517 11 549 38 562 52 c 0
 584 76 602 104 602 136 c 2
 602 277 l 2
 602 330 560 417 480 417 c 0
 406 417 336 334 336 215 c 0
EndSplineSet
EndChar
StartChar: r
Encoding: 114 114 53
Width: 1000
Flags: MW
LayerCount: 2
Fore
SplineSet
352 0 m 1
 352 31 l 1
 390 31 410 31 420 39 c 0
 428 45 430 56 430 76 c 2
 430 344 l 2
 430 393 422 400 352 400 c 1
 352 431 l 1
 491 442 l 1
 491 332 l 1
 505 375 541 442 614 442 c 0
 657 442 688 413 688 381 c 0
 688 349 663 337 645 337 c 0
 623 337 602 352 602 380 c 0
 602 406 622 418 625 419 c 1
 623 420 621 420 614 420 c 0
 538 420 496 331 496 232 c 2
 496 78 l 2
 496 60 496 48 506 41 c 4
 516 34 535 31 572 31 c 2
 593 31 l 1
 593 0 l 1
 553 3 506 3 466 3 c 0
 438 3 391 1 352 0 c 1
EndSplineSet
EndChar
StartChar: s
Encoding: 115 115 54
Width: 1000
Flags: MW
LayerCount: 2
Fore
SplineSet
336 13 m 2
 336 145 l 2
 336 163 337 170 350 170 c 0
 360 170 361 166 364 153 c 0
 383 68 418 11 502 11 c 0
 580 11 616 51 616 102 c 0
 616 174 534 190 512 194 c 0
 440 208 412 214 380 240 c 0
 353 262 336 290 336 325 c 0
 336 381 374 448 496 448 c 0
 511 448 552 448 590 420 c 1
 594 423 605 432 608 436 c 0
 621 448 623 448 628 448 c 0
 639 448 638 441 638 424 c 2
 638 323 l 2
 638 304 639 299 626 299 c 0
 624 299 615 299 614 308 c 0
 613 327 610 369 582 398 c 4
 565 416 538 429 496 429 c 0
 410 429 384 388 384 353 c 0
 384 295 452 282 508 271 c 0
 550 263 589 255 622 223 c 0
 634 211 664 181 664 128 c 0
 664 56 617 -11 502 -11 c 0
 481 -11 436 -10 392 32 c 1
 374 13 374 11 372 9 c 0
 353 -10 353 -11 348 -11 c 0
 337 -11 336 -4 336 13 c 2
EndSplineSet
EndChar
StartChar: t
Encoding: 116 116 55
Width: 1000
Flags: MW
LayerCount: 2
Fore
SplineSet
363.5 400 m 1
 363.5 422 l 1
 461.5 426 491.5 533 492.5 615 c 1
 517.5 615 l 1
 517.5 431 l 1
 660.5 431 l 1
 660.5 400 l 1
 517.5 400 l 1
 517.5 122 l 2
 517.5 105 517.5 14 584.5 14 c 0
 621.5 14 651.5 52 651.5 126 c 2
 651.5 181 l 1
 676.5 181 l 1
 676.5 124 l 2
 676.5 60 648.5 -11 577.5 -11 c 0
 541.5 -11 448.5 1 448.5 124 c 2
 448.5 400 l 1
 363.5 400 l 1
EndSplineSet
EndChar
StartChar: u
Encoding: 117 117 56
Width: 1000
Flags: MW
LayerCount: 2
Fore
SplineSet
248.5 400 m 1
 248.5 431 l 1
 395.5 442 l 1
 395.5 110 l 2
 395.5 58 399.5 11 483.5 11 c 0
 556.5 11 604.5 79 604.5 166 c 2
 604.5 344 l 2
 604.5 393 596.5 400 526.5 400 c 1
 526.5 431 l 1
 673.5 442 l 1
 673.5 87 l 2
 673.5 38 681.5 31 751.5 31 c 1
 751.5 0 l 1
 607.5 -11 l 1
 607.5 79 l 1
 578.5 17 534.5 -11 478.5 -11 c 0
 326.5 -11 326.5 80 326.5 158 c 2
 326.5 308 l 2
 326.5 397 326.5 400 248.5 400 c 1
EndSplineSet
EndChar
StartChar: v
Encoding: 118 118 57
Width: 1000
Flags: MW
LayerCount: 2
Fore
SplineSet
256 400 m 1
 256 431 l 1
 286 429 325 428 352 428 c 0
 375 428 432 430 462 431 c 1
 462 400 l 1
 444 400 404 400 404 374 c 0
 404 372 404 370 410 357 c 2
 522 78 l 1
 624 333 l 2
 628 344 630 348 630 357 c 0
 630 376 619 399 582 400 c 1
 582 431 l 1
 599 430 646 428 670 428 c 0
 693 428 721 429 744 431 c 1
 744 400 l 1
 678 399 661 356 652 333 c 2
 522 8 l 2
 518 -2 513 -11 500 -11 c 0
 487 -11 486 -6 480 8 c 2
 336 363 l 2
 330 378 324 388 314 393 c 4
 304 398 288 400 256 400 c 1
EndSplineSet
EndChar
StartChar: w
Encoding: 119 119 58
Width: 1000
Flags: MW
LayerCount: 2
Fore
SplineSet
158 400 m 1
 158 431 l 1
 194 429 246 428 250 428 c 0
 273 428 330 430 360 431 c 1
 360 400 l 1
 340 400 300 400 300 373 c 0
 300 369 301 367 306 355 c 2
 400 88 l 1
 486 330 l 5
 486 330 l 1
 479 349 469 379 464 385 c 0
 454 398 437 400 400 400 c 1
 400 431 l 1
 430 429 460 428 490 428 c 0
 514 428 565 430 594 431 c 1
 594 400 l 1
 574 400 534 400 534 373 c 0
 534 368 536 366 540 354 c 2
 638 75 l 1
 730 331 l 2
 735 344 734 346 734 352 c 0
 734 381 712 399 676 400 c 1
 676 431 l 1
 695 430 741 428 770 428 c 0
 792 428 820 429 842 431 c 1
 842 400 l 1
 807 399 776 386 758 336 c 2
 642 8 l 2
 638 -2 635 -11 622 -11 c 0
 609 -11 606 -3 602 8 c 2
 500 292 l 1
 398 9 l 2
 393 -5 391 -11 378 -11 c 0
 365 -11 363 -3 358 11 c 2
 232 365 l 2
 220 397 208 400 158 400 c 1
EndSplineSet
EndChar
StartChar: x
Encoding: 120 120 59
Width: 1000
Flags: MW
LayerCount: 2
Fore
SplineSet
248 0 m 1
 248 31 l 1
 269 31 328 33 376 91 c 1
 470 210 l 1
 371 339 l 2
 324 399 323 400 253 400 c 1
 253 431 l 1
 280 429 327 428 348 428 c 0
 364 428 430 430 456 431 c 1
 456 400 l 1
 436 399 421 390 421 375 c 0
 421 369 421 367 430 357 c 1
 508 256 l 1
 570 334 l 2
 575 340 585 353 585 369 c 0
 585 385 577 398 556 400 c 1
 556 431 l 1
 569 430 622 428 652 428 c 0
 678 428 708 429 734 431 c 1
 734 400 l 1
 687 399 646 384 615 348 c 1
 591 322 553 273 523 235 c 1
 657 62 l 2
 680 33 698 31 752 31 c 1
 752 0 l 1
 722 2 683 3 656 3 c 0
 634 3 578 1 548 0 c 1
 548 31 l 1
 575 32 584 47 584 56 c 0
 584 62 571 78 563 89 c 2
 487 189 l 1
 443 137 416 106 404 84 c 5
 399 75 397 68 397 62 c 0
 397 47 404 34 426 31 c 1
 426 0 l 1
 402 1 360 3 331 3 c 0
 305 3 274 2 248 0 c 1
EndSplineSet
EndChar
StartChar: y
Encoding: 121 121 60
Width: 1000
Flags: MW
LayerCount: 2
Fore
SplineSet
255.5 -124 m 0
 255.5 -94 277.5 -81 297.5 -81 c 0
 320.5 -81 339.5 -97 339.5 -123 c 0
 339.5 -139 331.5 -161 300.5 -165 c 1
 319.5 -183 342.5 -183 347.5 -183 c 0
 411.5 -183 439.5 -114 461.5 -59 c 0
 467.5 -46 481.5 -13 486.5 0 c 1
 336.5 365 l 2
 322.5 400 303.5 400 255.5 400 c 1
 255.5 431 l 1
 285.5 429 325.5 428 352.5 428 c 0
 369.5 428 435.5 430 461.5 431 c 1
 461.5 400 l 1
 442.5 400 405.5 400 405.5 374 c 0
 405.5 370 407.5 366 411.5 356 c 2
 522.5 87 l 1
 623.5 333 l 2
 628.5 345 629.5 347 629.5 357 c 0
 629.5 382 613.5 399 582.5 400 c 1
 582.5 431 l 1
 604.5 430 651.5 428 669.5 428 c 0
 692.5 428 721.5 429 744.5 431 c 1
 744.5 400 l 1
 728.5 400 677.5 399 651.5 336 c 2
 475.5 -91 l 2
 451.5 -148 410.5 -205 347.5 -205 c 0
 297.5 -205 255.5 -169 255.5 -124 c 0
EndSplineSet
EndChar
StartChar: z
Encoding: 122 122 61
Width: 1000
Flags: MW
LayerCount: 2
Fore
SplineSet
314 14 m 0
 314 19 313 21 322 32 c 2
 602 409 l 1
 488 409 l 2
 378 409 358 372 352 270 c 1
 328 270 l 1
 338 431 l 1
 658 431 l 2
 676 431 684 431 684 418 c 0
 684 414 685 412 676 401 c 2
 398 25 l 1
 516 25 l 2
 632 25 653 69 662 187 c 1
 686 187 l 1
 670 0 l 1
 340 0 l 2
 321 0 314 0 314 14 c 0
EndSplineSet
EndChar
StartChar: braceleft
Encoding: 123 123 91
Width: 1000
Flags: MW
LayerCount: 2
Fore
SplineSet
573 250 m 0
 573 264 587 260 611 265 c 0
 655 273 704 305 712 357 c 0
 714 367 714 376 714 386 c 2
 714 604 l 2
 714 630 714 672 762 708 c 0
 784 724 836 750 907 750 c 0
 922 750 925 743 925 739 c 0
 925 724 901 730 869 720 c 0
 789 694 784 634 784 611 c 2
 784 385 l 2
 784 354 782 281 665 250 c 1
 778 221 784 148 784 121 c 2
 784 -101 l 2
 784 -113 784 -125 786 -137 c 0
 795 -180 838 -219 901 -226 c 0
 908 -227 925 -227 925 -238 c 0
 925 -248 917 -250 907 -250 c 2
 906 -250 l 2
 826 -250 725 -214 715 -131 c 0
 714 -121 714 -112 714 -102 c 2
 714 117 l 2
 714 151 703 175 688 193 c 4
 661 225 619 235 605 237 c 0
 591 239 573 237 573 250 c 0
EndSplineSet
EndChar
StartChar: bar
Encoding: 124 124 92
Width: 1000
Flags: MW
LayerCount: 2
Fore
SplineSet
480 -219 m 2
 480 712 l 2
 480 734 482 749 500 749 c 0
 508 749 520 745 520 719 c 2
 520 -212 l 2
 520 -237 517 -249 500 -249 c 0
 481 -249 480 -228 480 -219 c 2
EndSplineSet
EndChar
StartChar: asciitilde
Encoding: 126 126 94
Width: 1000
Flags: MW
LayerCount: 2
Fore
SplineSet
278 588 m 1
 311 626 339 668 403 668 c 0
 473 668 537 620 607 620 c 0
 655 620 679 642 705 668 c 1
 722 653 l 1
 690 614 658 574 597 574 c 0
 527 574 463 621 393 621 c 0
 346 621 321 599 295 574 c 1
 278 588 l 1
EndSplineSet
EndChar
StartChar: cent
Encoding: 162 162 95
Width: 1000
Flags: MW
LayerCount: 2
Fore
SplineSet
282 215 m 0
 282 337 379 437 510 446 c 1
 510 533 l 1
 542 533 l 1
 542 446 l 1
 614 445 667 424 692 390 c 4
 702 376 708 360 708 342 c 0
 708 310 687 294 664 294 c 0
 636 294 618 315 618 340 c 0
 618 352 621 380 662 386 c 1
 643 400 615 418 542 421 c 1
 542 15 l 1
 640 22 668 68 684 99 c 0
 692 116 697 129 706 129 c 0
 713 129 718 124 718 118 c 0
 718 110 691 0 542 -10 c 1
 542 -97 l 1
 510 -97 l 1
 510 -10 l 1
 378 -1 282 97 282 215 c 0
366 216 m 0
 366 127 404 37 510 16 c 1
 510 420 l 1
 412 407 366 322 366 216 c 0
EndSplineSet
EndChar
StartChar: sterling
Encoding: 163 163 96
Width: 1000
Flags: MW
LayerCount: 2
Fore
SplineSet
222 48 m 0
 222 102 278 139 342 139 c 2
 342 139 l 2
 350 139 372 138 408 127 c 1
 410 156 410 188 410 219 c 2
 410 332 l 1
 350 332 l 2
 342 332 331 331 326 339 c 0
 324 342 324 345 324 348 c 0
 324 352 325 355 328 358 c 0
 332 363 340 363 348 363 c 2
 410 363 l 1
 410 510 l 2
 410 517 410 524 410 530 c 0
 419 654 513 706 584 706 c 0
 686 706 750 610 750 525 c 0
 750 485 720 475 704 475 c 0
 679 475 658 494 658 520 c 0
 658 547 679 566 704 566 c 0
 710 566 715 565 720 564 c 1
 698 645 640 683 586 683 c 0
 544 683 515 656 500 630 c 0
 479 593 480 548 480 506 c 2
 480 363 l 1
 564 363 l 1
 578 362 592 362 592 348 c 0
 592 335 584 332 568 332 c 2
 480 332 l 1
 480 185 l 2
 480 151 478 133 466 102 c 1
 516 77 582 33 644 33 c 0
 705 33 742 77 750 122 c 0
 751 128 753 148 764 148 c 0
 766 148 767 147 770 146 c 0
 775 143 778 138 778 130 c 0
 778 79 729 -11 630 -11 c 0
 576 -11 535 10 442 60 c 1
 391 -6 328 -11 306 -11 c 0
 256 -11 222 13 222 48 c 0
260 47 m 0
 260 26 283 12 308 12 c 0
 343 12 378 37 396 81 c 1
 364 92 341 94 328 94 c 0
 326 94 324 94 322 94 c 4
 280 92 260 67 260 47 c 0
EndSplineSet
EndChar
StartChar: currency
Encoding: 164 164 131
Width: 1000
Flags: MW
LayerCount: 2
Fore
SplineSet
252 277 m 0
 252 146 357 29 500 29 c 0
 632 29 748 136 748 277 c 0
 748 409 640 524 500 524 c 0
 367 524 252 417 252 277 c 0
178 -24 m 0
 178 -15 198 1 284 88 c 9
 284 88 l 17
 222 159 212 235 212 277 c 0
 212 353 240 413 284 466 c 9
 284 466 l 17
 210 539 178 568 178 580 c 0
 178 589 188 598 196 598 c 2
 198 598 l 2
 211 598 213 592 268 538 c 2
 312 494 l 1
 312 494 l 1
 383 556 458 564 500 564 c 0
 503 564 505 564 508 564 c 0
 582 562 641 535 690 494 c 9
 690 494 l 17
 767 572 792 598 804 598 c 0
 809 598 822 594 822 579 c 0
 822 562 788 538 718 466 c 1
 718 465 l 1
 779 393 788 319 788 277 c 0
 788 234 779 160 718 89 c 1
 718 88 l 1
 822 -15 822 -15 822 -26 c 0
 822 -35 813 -45 802 -45 c 2
 800 -45 l 2
 791 -45 777 -29 688 60 c 9
 688 60 l 17
 617 -2 542 -11 500 -11 c 0
 424 -11 360 18 312 60 c 1
 312 60 l 1
 221 -32 211 -45 198 -45 c 0
 191 -45 178 -41 178 -24 c 0
EndSplineSet
EndChar
StartChar: yen
Encoding: 165 165 97
Width: 1000
Flags: MW
LayerCount: 2
Fore
SplineSet
136 652 m 1
 136 683 l 1
 174 682 213 680 264 680 c 0
 314 680 364 681 414 683 c 1
 414 652 l 1
 408 652 l 2
 390 652 346 652 346 626 c 0
 346 621 350 611 458 436 c 1
 606 436 l 1
 606 436 l 1
 705 597 708 596 708 614 c 0
 708 629 697 650 652 652 c 1
 652 683 l 1
 691 681 729 680 768 680 c 0
 806 680 835 682 864 683 c 1
 864 652 l 1
 853 652 841 651 832 650 c 0
 796 645 773 631 752 607 c 0
 722 573 697 519 644 436 c 1
 770 436 l 2
 792 436 804 433 804 425 c 0
 804 424 804 422 804 420 c 0
 800 413 790 413 780 413 c 2
 656 413 l 2
 633 413 630 415 618 395 c 0
 543 275 544 277 544 257 c 2
 544 242 l 1
 780 242 l 2
 791 242 804 241 804 230 c 0
 804 222 798 220 790 219 c 0
 787 219 785 219 782 219 c 2
 544 219 l 1
 544 77 l 2
 544 60 547 50 554 43 c 4
 566 32 590 31 636 31 c 2
 646 31 l 1
 646 0 l 1
 604 1 562 3 506 3 c 0
 455 3 405 2 354 0 c 1
 354 31 l 1
 364 31 l 2
 408 31 431 33 444 41 c 0
 454 48 456 59 456 78 c 2
 456 219 l 1
 218 219 l 2
 215 219 213 219 210 219 c 0
 202 220 196 222 196 230 c 0
 196 241 209 242 220 242 c 2
 456 242 l 1
 456 258 l 2
 456 277 452 283 382 395 c 0
 371 412 368 413 356 413 c 2
 220 413 l 2
 208 413 196 413 196 425 c 0
 196 429 198 431 204 433 c 0
 210 435 220 436 230 436 c 2
 356 436 l 1
 250 609 l 2
 225 648 215 652 136 652 c 1
472 413 m 1
 532 315 l 1
 592 413 l 1
 472 413 l 1
EndSplineSet
EndChar
StartChar: brokenbar
Encoding: 166 166 98
Width: 1000
Flags: MW
LayerCount: 2
Fore
SplineSet
480 140 m 2
 480 153 482 165 491 170 c 4
 493 171 496 172 500 172 c 0
 511 172 520 162 520 142 c 2
 520 -218 l 2
 520 -225 520 -249 500 -249 c 0
 492 -249 480 -244 480 -219 c 2
 480 140 l 2
480 359 m 2
 480 718 l 2
 480 736 486 744 492 747 c 0
 495 749 497 749 500 749 c 0
 508 749 520 744 520 718 c 2
 520 359 l 2
 520 333 508 328 500 328 c 0
 492 328 480 333 480 359 c 2
EndSplineSet
EndChar
StartChar: section
Encoding: 167 167 99
Width: 1000
Flags: MW
LayerCount: 2
Fore
SplineSet
348 255 m 0
 348 323 388 368 426 390 c 1
 388 426 348 475 348 550 c 0
 348 642 420 705 500 705 c 0
 568 705 620 662 634 613 c 0
 637 604 638 595 638 586 c 0
 638 556 616 548 604 548 c 0
 586 548 570 563 570 583 c 0
 570 593 574 615 606 618 c 1
 580 673 523 682 502 682 c 0
 430 682 392 609 392 554 c 0
 392 486 476 458 516 441 c 1
 575 414 652 346 652 245 c 0
 652 216 645 150 574 110 c 1
 613 73 652 24 652 -51 c 0
 652 -135 587 -205 500 -205 c 0
 434 -205 385 -166 368 -120 c 4
 364 -109 362 -98 362 -87 c 0
 362 -56 384 -49 396 -49 c 0
 414 -49 430 -63 430 -83 c 0
 430 -93 426 -116 394 -118 c 1
 420 -174 477 -183 498 -183 c 0
 563 -183 600 -123 606 -71 c 0
 607 -66 608 -60 608 -55 c 0
 608 13 524 42 484 58 c 1
 424 85 348 153 348 255 c 0
392 258 m 0
 392 184 483 162 532 136 c 0
 537 134 542 131 548 131 c 0
 564 131 608 178 608 241 c 0
 608 258 602 273 594 285 c 0
 566 328 501 346 468 363 c 0
 463 366 458 369 452 369 c 0
 436 369 392 322 392 258 c 0
EndSplineSet
EndChar
StartChar: dieresis
Encoding: 168 168 100
Width: 1000
Flags: MW
LayerCount: 2
Fore
SplineSet
350 606 m 0
 350 637 376 659 403 659 c 0
 430 659 455 637 455 606 c 0
 455 575 429 554 403 554 c 0
 372 554 350 580 350 606 c 0
545 606 m 0
 545 637 570 659 597 659 c 0
 625 659 650 637 650 606 c 0
 650 576 624 554 598 554 c 0
 567 554 545 578 545 606 c 0
EndSplineSet
EndChar
StartChar: degree
Encoding: 176 176 102
Width: 1000
Flags: MW
LayerCount: 2
Fore
SplineSet
55 572 m 0
 55 633 105 683 166 683 c 0
 231 683 277 629 277 573 c 0
 277 511 227 462 166 462 c 0
 102 462 55 513 55 572 c 0
95 572 m 0
 95 533 128 502 166 502 c 0
 204 502 236 532 236 572 c 0
 236 611 204 643 166 643 c 0
 128 643 95 612 95 572 c 0
EndSplineSet
EndChar
StartChar: plusminus
Encoding: 177 177 103
Width: 1000
Flags: MW
LayerCount: 2
Fore
SplineSet
168 20 m 0
 168 28 172 39 196 40 c 1
 480 40 l 1
 480 313 l 1
 198 313 l 2
 194 313 189 313 185 314 c 0
 176 316 168 321 168 333 c 0
 168 352 186 353 198 353 c 2
 480 353 l 1
 480 635 l 2
 480 640 481 645 482 650 c 0
 484 658 489 665 500 665 c 0
 512 665 517 658 519 649 c 0
 520 644 520 639 520 635 c 2
 520 353 l 1
 802 353 l 2
 806 353 811 353 816 352 c 0
 825 350 832 345 832 333 c 0
 832 321 823 316 814 314 c 4
 810 313 806 313 802 313 c 2
 520 313 l 1
 520 40 l 1
 800 40 l 2
 814 40 832 39 832 19 c 0
 832 12 828 1 803 0 c 1
 198 0 l 2
 173 0 168 12 168 20 c 0
EndSplineSet
EndChar
StartChar: acute
Encoding: 180 180 104
Width: 1000
Flags: MW
LayerCount: 2
Fore
SplineSet
408 510 m 1
 534 633 539 642 558 642 c 0
 579 642 592 622 592 605 c 0
 592 582 586 582 464 513 c 0
 451 505 436 497 422 490 c 1
 408 510 l 1
EndSplineSet
EndChar
StartChar: paragraph
Encoding: 182 182 105
Width: 1000
Flags: MW
LayerCount: 2
Fore
SplineSet
237 463 m 0
 237 555 307 694 500 694 c 2
 730 694 l 2
 749 694 763 691 763 674 c 0
 763 665 758 660 752 657 c 0
 746 655 739 654 732 654 c 2
 681 654 l 1
 681 -155 l 1
 728 -155 l 2
 736 -155 744 -155 750 -157 c 0
 758 -159 763 -164 763 -175 c 0
 763 -195 737 -194 734 -195 c 1
 479 -195 l 2
 458 -195 450 -185 450 -175 c 0
 450 -166 454 -161 460 -158 c 4
 467 -155 477 -155 487 -155 c 2
 532 -155 l 1
 532 230 l 1
 372 238 237 323 237 463 c 0
572 -155 m 1
 641 -155 l 1
 641 654 l 1
 572 654 l 1
 572 -155 l 1
EndSplineSet
EndChar
StartChar: multiply
Encoding: 215 215 106
Width: 1000
Flags: MW
LayerCount: 2
Fore
SplineSet
260 471 m 0
 260 483 272 490 277 490 c 2
 280 490 l 2
 292 490 307 472 309 470 c 2
 501 278 l 1
 501 278 l 1
 693 470 l 2
 701 478 710 490 722 490 c 0
 737 490 740 476 740 473 c 0
 740 466 739 462 731 453 c 0
 717 437 682 405 592 313 c 1
 529 250 l 1
 718 61 l 2
 727 52 740 41 740 29 c 0
 740 17 731 10 722 10 c 0
 716 10 712 10 692 30 c 2
 500 222 l 5
 500 222 l 1
 313 34 l 2
 303 24 291 10 279 10 c 0
 269 10 261 18 261 28 c 0
 261 33 262 37 265 42 c 0
 272 52 312 88 472 250 c 1
 284 439 l 2
 274 448 260 459 260 471 c 0
EndSplineSet
EndChar
StartChar: divide
Encoding: 247 247 107
Width: 1000
Flags: MW
LayerCount: 2
Fore
SplineSet
168 250 m 0
 168 261 175 267 184 269 c 0
 189 270 194 270 200 270 c 2
 801 270 l 2
 807 270 813 270 818 268 c 4
 826 266 832 261 832 250 c 0
 832 233 816 230 804 230 c 2
 197 230 l 2
 173 230 168 242 168 250 c 0
437 35 m 0
 437 70 466 97 500 97 c 0
 533 97 563 71 563 35 c 0
 563 -2 533 -28 500 -28 c 0
 463 -28 437 3 437 35 c 0
437 465 m 0
 437 500 466 528 500 528 c 0
 533 528 563 502 563 465 c 0
 563 429 533 403 500 403 c 0
 463 403 437 434 437 465 c 0
EndSplineSet
EndChar
StartChar: quoteleft
Encoding: 8216 8216 108
Width: 1000
Flags: MW
LayerCount: 2
Fore
SplineSet
873 499 m 0
 873 607 947 692 966 692 c 0
 971 692 976 688 976 682 c 0
 976 666 895 616 895 500 c 0
 895 493 896 485 897 478 c 1
 913 496 927 499 940 499 c 0
 971 499 992 476 992 447 c 0
 992 419 971 394 940 394 c 0
 900 394 873 434 873 499 c 0
EndSplineSet
EndChar
StartChar: quoteright
Encoding: 8217 8217 109
Width: 1000
Flags: MW
LayerCount: 2
Fore
SplineSet
8 641 m 0
 8 669 29 694 61 694 c 0
 101 694 128 654 128 589 c 0
 128 481 53 396 35 396 c 0
 30 396 25 400 25 406 c 0
 25 421 105 472 105 588 c 0
 105 595 105 602 104 610 c 1
 86 590 72 588 61 588 c 0
 30 588 8 612 8 641 c 0
EndSplineSet
EndChar
StartChar: quotedblleft
Encoding: 8220 8220 110
Width: 1000
Flags: MW
LayerCount: 2
Fore
SplineSet
873 499 m 0
 873 607 947 692 966 692 c 0
 971 692 976 688 976 682 c 0
 976 666 895 616 895 500 c 0
 895 493 896 485 897 478 c 1
 913 496 927 499 940 499 c 0
 971 499 992 476 992 447 c 0
 992 419 971 394 940 394 c 0
 900 394 873 434 873 499 c 0
662 499 m 0
 662 609 738 692 755 692 c 0
 761 692 765 687 765 682 c 0
 765 667 685 616 685 501 c 0
 685 493 685 486 686 479 c 1
 702 497 716 500 729 500 c 0
 760 500 782 476 782 447 c 0
 782 419 761 394 730 394 c 0
 689 394 662 435 662 499 c 0
EndSplineSet
EndChar
StartChar: dagger
Encoding: 8224 8224 112
Width: 1000
Flags: MW
LayerCount: 2
Fore
SplineSet
334 431 m 0
 334 447 344 465 372 465 c 0
 413 465 442 446 490 441 c 1
 485 525 465 610 465 658 c 0
 465 682 471 704 500 704 c 0
 514 704 535 696 535 663 c 0
 535 607 515 530 510 441 c 1
 551 445 595 465 627 465 c 0
 658 465 666 444 666 431 c 0
 666 418 658 396 627 396 c 0
 595 396 558 413 510 420 c 1
 513 358 535 313 535 237 c 2
 535 225 l 2
 535 62 523 -100 515 -181 c 0
 513 -199 512 -211 505 -215 c 4
 504 -216 502 -216 500 -216 c 0
 498 -216 496 -216 495 -215 c 0
 486 -211 486 -196 485 -181 c 0
 477 -100 465 62 465 225 c 2
 465 237 l 2
 465 313 486 358 489 420 c 1
 443 413 401 396 372 396 c 0
 341 396 334 419 334 431 c 0
EndSplineSet
EndChar
StartChar: daggerdbl
Encoding: 8225 8225 113
Width: 1000
Flags: MW
LayerCount: 2
Fore
SplineSet
334 22 m 0
 334 37 343 57 374 57 c 0
 403 57 447 37 489 33 c 1
 487 83 465 163 465 206 c 0
 465 244 489 249 500 249 c 0
 513 249 535 241 535 210 c 0
 535 156 513 92 510 33 c 1
 550 37 594 57 626 57 c 0
 658 57 666 34 666 22 c 0
 666 10 659 -13 627 -13 c 0
 592 -13 558 6 510 11 c 1
 513 -43 535 -119 535 -162 c 0
 535 -200 510 -205 500 -205 c 0
 487 -205 465 -197 465 -165 c 0
 465 -112 487 -48 489 11 c 1
 446 7 403 -13 373 -13 c 0
 341 -13 334 10 334 22 c 0
334 478 m 0
 334 491 342 512 373 512 c 0
 402 512 454 492 489 488 c 1
 487 539 465 618 465 662 c 0
 465 700 489 704 500 704 c 0
 513 704 535 696 535 665 c 0
 535 612 513 547 510 488 c 1
 547 492 593 512 626 512 c 0
 658 512 666 491 666 478 c 0
 666 465 659 443 627 443 c 0
 592 443 552 462 510 467 c 1
 513 413 535 336 535 293 c 0
 535 255 510 251 500 251 c 0
 487 251 465 259 465 290 c 0
 465 343 487 408 489 467 c 1
 448 462 404 443 372 443 c 0
 341 443 334 466 334 478 c 0
EndSplineSet
EndChar
StartChar: perthousand
Encoding: 8240 8240 118
Width: 1000
Flags: MW
LayerCount: 2
Fore
SplineSet
712 146 m 0
 712 258 768 347 837 347 c 0
 909 347 966 257 966 146 c 0
 966 34 909 -55 837 -55 c 0
 777 -55 712 21 712 146 c 0
765 146 m 0
 765 1 808 -32 838 -32 c 0
 882 -32 941 30 941 145 c 0
 941 267 879 324 838 324 c 0
 811 324 772 296 766 179 c 4
 765 169 765 158 765 146 c 0
34 549 m 0
 34 666 105 750 177 750 c 0
 204 750 222 735 238 718 c 0
 285 666 337 641 397 641 c 0
 459 641 517 668 559 736 c 0
 564 743 568 750 576 750 c 0
 585 750 594 741 594 730 c 0
 594 724 592 721 587 712 c 2
 157 -41 l 2
 149 -52 147 -56 137 -56 c 0
 127 -56 117 -47 117 -36 c 0
 117 -34 117 -29 126 -16 c 2
 512 653 l 1
 511 654 l 1
 506 650 463 619 398 619 c 0
 367 619 325 624 270 661 c 1
 288 609 288 562 288 548 c 0
 288 436 239 347 177 347 c 0
 106 347 34 428 34 549 c 0
96 548 m 0
 96 382 161 369 178 369 c 0
 222 369 266 441 266 549 c 0
 266 654 223 728 178 728 c 0
 160 728 96 715 96 548 c 0
429 146 m 0
 429 263 489 347 554 347 c 0
 614 347 664 260 664 145 c 0
 664 33 616 -56 554 -56 c 0
 490 -56 429 25 429 146 c 0
481 145 m 0
 481 -21 537 -34 554 -34 c 0
 598 -34 643 38 643 146 c 0
 643 251 599 325 554 325 c 0
 536 325 481 312 481 145 c 0
EndSplineSet
EndChar
StartChar: overline
Encoding: 8254 8254 114
Width: 1000
Flags: MW
LayerCount: 2
Fore
SplineSet
83 789 m 0
 83 805 98 809 113 809 c 2
 884 809 l 2
 898 809 914 807 914 789 c 0
 914 772 897 770 886 769 c 1
 112 769 l 2
 88 769 83 781 83 789 c 0
EndSplineSet
EndChar
StartChar: asterism
Encoding: 8258 8258 133
Width: 1000
Flags: MW
LayerCount: 2
Fore
SplineSet
556 -39 m 0
 556 -27 559 -20 578 -11 c 2
 718 55 l 1
 576 121 l 2
 559 129 556 137 556 148 c 0
 556 161 566 176 582 176 c 0
 588 176 590 176 604 165 c 2
 728 75 l 1
 727 93 717 188 714 228 c 2
 714 237 714 243 714 245 c 0
 714 258 724 270 740 270 c 0
 753 270 766 260 766 245 c 1
 766 230 l 2
 752 75 l 1
 862 157 l 2
 888 176 891 176 898 176 c 0
 914 176 924 161 924 148 c 0
 924 136 921 129 902 120 c 2
 762 54 l 1
 904 -12 l 2
 921 -20 924 -28 924 -39 c 0
 924 -52 914 -67 898 -67 c 0
 890 -67 887 -64 882 -61 c 0
 877 -58 802 -2 752 34 c 1
 753 24 757 -12 760 -48 c 2
 764 -89 766 -131 766 -136 c 0
 766 -149 756 -161 740 -161 c 0
 727 -161 714 -151 714 -136 c 1
 716 -114 l 2
 728 34 l 1
 606 -55 l 2
 588 -67 l 1
 555 -67 556 -41 556 -39 c 0
76 -39 m 0
 76 -27 79 -20 98 -11 c 2
 238 55 l 1
 96 121 l 2
 79 129 76 137 76 148 c 0
 76 161 86 176 102 176 c 0
 108 176 110 176 124 165 c 2
 248 75 l 1
 247 93 237 188 234 228 c 2
 234 237 234 243 234 245 c 0
 234 258 244 270 260 270 c 0
 273 270 286 260 286 245 c 1
 286 230 l 2
 272 75 l 1
 382 157 l 2
 408 176 411 176 418 176 c 0
 434 176 444 161 444 148 c 0
 444 136 441 129 422 120 c 2
 282 54 l 1
 424 -12 l 2
 441 -20 444 -28 444 -39 c 0
 444 -52 434 -67 418 -67 c 0
 410 -67 407 -64 402 -61 c 0
 397 -58 322 -2 272 34 c 1
 273 24 277 -12 280 -48 c 2
 284 -89 286 -131 286 -136 c 0
 286 -149 276 -161 260 -161 c 0
 247 -161 234 -151 234 -136 c 1
 236 -114 l 2
 248 34 l 1
 126 -55 l 2
 108 -67 l 1
 75 -67 76 -41 76 -39 c 0
316 441 m 0
 316 453 319 460 338 469 c 2
 478 535 l 1
 336 601 l 2
 319 609 316 617 316 628 c 0
 316 641 326 656 342 656 c 0
 348 656 350 656 364 645 c 2
 488 555 l 1
 487 573 477 668 474 708 c 2
 474 717 474 723 474 725 c 0
 474 738 484 750 500 750 c 0
 513 750 526 740 526 725 c 1
 526 710 l 2
 512 555 l 1
 622 637 l 2
 648 656 651 656 658 656 c 0
 674 656 684 641 684 628 c 0
 684 616 681 609 662 600 c 2
 522 534 l 1
 664 468 l 2
 681 460 684 452 684 441 c 0
 684 428 674 413 658 413 c 0
 650 413 647 416 642 419 c 0
 637 422 562 478 512 514 c 1
 513 504 517 468 520 432 c 2
 524 391 526 349 526 344 c 0
 526 331 516 319 500 319 c 0
 487 319 474 329 474 344 c 1
 476 366 l 2
 488 514 l 1
 366 425 l 2
 348 413 l 1
 315 413 316 439 316 441 c 0
EndSplineSet
EndChar
StartChar: questiondbl
Encoding: 8263 8263 129
Width: 1000
Flags: MW
LayerCount: 2
Fore
SplineSet
85 572 m 0
 85 586 88 600 93 613 c 4
 113 663 170 705 255 705 c 0
 404 705 444 628 444 570 c 0
 444 528 423 492 396 472 c 0
 361 446 264 375 264 249 c 2
 264 214 l 2
 264 196 264 187 251 187 c 0
 239 187 239 193 239 211 c 2
 239 256 l 2
 239 317 261 409 327 481 c 1
 345 499 361 517 361 576 c 0
 361 615 361 683 252 683 c 0
 210 683 152 668 121 615 c 1
 135 615 177 615 177 570 c 0
 177 544 159 524 131 524 c 0
 108 524 85 538 85 572 c 0
198 53 m 0
 198 82 222 106 251 106 c 0
 280 106 304 82 304 53 c 0
 304 24 280 0 251 0 c 0
 222 0 198 24 198 53 c 0
556 572 m 0
 556 586 559 600 564 613 c 4
 584 663 641 705 726 705 c 0
 875 705 915 628 915 570 c 0
 915 528 894 492 867 472 c 0
 832 446 735 375 735 249 c 2
 735 214 l 2
 735 196 735 187 722 187 c 0
 710 187 710 193 710 211 c 2
 710 256 l 2
 710 317 732 409 798 481 c 1
 816 499 832 517 832 576 c 0
 832 615 832 683 723 683 c 0
 681 683 623 668 592 615 c 1
 606 615 648 615 648 570 c 0
 648 544 630 524 602 524 c 0
 579 524 556 538 556 572 c 0
669 53 m 0
 669 82 693 106 722 106 c 0
 751 106 775 82 775 53 c 0
 775 24 751 0 722 0 c 0
 693 0 669 24 669 53 c 0
EndSplineSet
EndChar
StartChar: questionexclam
Encoding: 8264 8264 130
Width: 1000
Flags: MW
LayerCount: 2
Fore
SplineSet
197 572 m 0
 197 586 200 600 205 613 c 4
 225 663 282 705 367 705 c 0
 516 705 556 628 556 570 c 0
 556 528 535 492 508 472 c 0
 473 446 376 375 376 249 c 2
 376 214 l 2
 376 196 376 187 363 187 c 0
 351 187 351 193 351 211 c 2
 351 256 l 2
 351 317 373 409 439 481 c 1
 457 499 473 517 473 576 c 0
 473 615 473 683 364 683 c 0
 322 683 264 668 233 615 c 1
 247 615 289 615 289 570 c 0
 289 544 271 524 243 524 c 0
 220 524 197 538 197 572 c 0
310 53 m 0
 310 82 334 106 363 106 c 0
 392 106 416 82 416 53 c 0
 416 24 392 0 363 0 c 0
 334 0 310 24 310 53 c 0
697 53 m 0
 697 84 723 106 750 106 c 0
 777 106 802 84 802 53 c 0
 802 22 776 1 750 1 c 0
 719 1 697 27 697 53 c 0
697 664 m 0
 697 698 725 716 750 716 c 0
 776 716 803 697 803 664 c 0
 803 661 802 657 802 653 c 2
 764 211 l 2
 763 197 760 188 749 188 c 0
 738 188 737 202 736 215 c 2
 698 650 l 2
 698 655 697 660 697 664 c 0
EndSplineSet
EndChar
StartChar: asteriskdbl
Encoding: 8273 8273 132
Width: 1000
Flags: MW
LayerCount: 2
Fore
SplineSet
316 -39 m 0
 316 -27 319 -20 338 -11 c 2
 478 55 l 1
 336 121 l 2
 319 129 316 137 316 148 c 0
 316 161 326 176 342 176 c 0
 348 176 350 176 364 165 c 2
 488 75 l 1
 487 93 477 188 474 228 c 2
 474 237 474 243 474 245 c 0
 474 258 484 270 500 270 c 0
 513 270 526 260 526 245 c 1
 526 230 l 2
 512 75 l 1
 622 157 l 2
 648 176 651 176 658 176 c 0
 674 176 684 161 684 148 c 0
 684 136 681 129 662 120 c 2
 522 54 l 1
 664 -12 l 2
 681 -20 684 -28 684 -39 c 0
 684 -52 674 -67 658 -67 c 0
 650 -67 647 -64 642 -61 c 0
 637 -58 562 -2 512 34 c 1
 513 24 517 -12 520 -48 c 2
 524 -89 526 -131 526 -136 c 0
 526 -149 516 -161 500 -161 c 0
 487 -161 474 -151 474 -136 c 1
 476 -114 l 2
 488 34 l 1
 366 -55 l 2
 348 -67 l 1
 315 -67 316 -41 316 -39 c 0
316 441 m 0
 316 453 319 460 338 469 c 2
 478 535 l 1
 336 601 l 2
 319 609 316 617 316 628 c 0
 316 641 326 656 342 656 c 0
 348 656 350 656 364 645 c 2
 488 555 l 1
 487 573 477 668 474 708 c 2
 474 717 474 723 474 725 c 0
 474 738 484 750 500 750 c 0
 513 750 526 740 526 725 c 1
 526 710 l 2
 512 555 l 1
 622 637 l 2
 648 656 651 656 658 656 c 0
 674 656 684 641 684 628 c 0
 684 616 681 609 662 600 c 2
 522 534 l 1
 664 468 l 2
 681 460 684 452 684 441 c 0
 684 428 674 413 658 413 c 0
 650 413 647 416 642 419 c 0
 637 422 562 478 512 514 c 1
 513 504 517 468 520 432 c 2
 524 391 526 349 526 344 c 0
 526 331 516 319 500 319 c 0
 487 319 474 329 474 344 c 1
 476 366 l 2
 488 514 l 1
 366 425 l 2
 348 413 l 1
 315 413 316 439 316 441 c 0
EndSplineSet
EndChar
StartChar: euro
Encoding: 8364 8364 127
Width: 1000
Flags: MW
LayerCount: 2
Fore
SplineSet
156 290 m 0
 156 292 159 312 172 321 c 0
 176 324 181 326 187 326 c 1
 266 326 l 1
 266 342 l 0
 266 357 l 1
 177 357 l 2
 174 357 171 358 168 358 c 0
 161 359 156 361 156 369 c 0
 156 377 165 398 174 403 c 0
 179 405 183 405 188 405 c 2
 272 405 l 1
 300 545 422 683 607 683 c 0
 727 683 826 613 840 586 c 1
 840 583 l 2
 840 574 834 556 827 542 c 0
 822 532 816 524 810 524 c 0
 795 524 739 608 607 608 c 0
 483 608 380 523 349 405 c 1
 739 405 l 1
 754 404 759 400 759 394 c 0
 759 390 753 367 742 360 c 0
 736 356 727 357 718 357 c 2
 342 357 l 1
 342 342 l 0
 342 326 l 1
 702 326 l 2
 718 326 724 323 724 315 c 0
 724 311 722 306 720 300 c 0
 711 279 706 278 691 278 c 2
 349 278 l 1
 382 152 490 76 608 76 c 0
 690 76 763 107 814 150 c 0
 823 158 830 161 834 161 c 0
 841 161 844 154 844 142 c 2
 844 114 l 2
 844 96 843 88 798 58 c 0
 745 23 679 0 608 0 c 0
 457 0 307 101 272 278 c 1
 178 278 l 2
 167 278 156 279 156 290 c 0
EndSplineSet
EndChar
StartChar: celsius
Encoding: 8451 8451 119
Width: 1000
Flags: MW
LayerCount: 2
Fore
SplineSet
55 572 m 0
 55 633 105 683 166 683 c 0
 231 683 277 629 277 573 c 0
 277 511 227 462 166 462 c 0
 102 462 55 513 55 572 c 0
95 572 m 0
 95 533 128 502 166 502 c 0
 204 502 236 532 236 572 c 0
 236 611 204 643 166 643 c 0
 128 643 95 612 95 572 c 0
296 342 m 0
 296 546 457 705 644 705 c 0
 740 705 791 655 828 619 c 1
 878 693 l 2
 886 705 890 705 894 705 c 0
 905 705 904 698 904 681 c 2
 904 444 l 2
 904 423 904 420 888 420 c 0
 874 420 874 423 872 437 c 0
 852 583 763 674 654 674 c 0
 615 674 524 660 462 576 c 0
 425 526 398 452 398 341 c 0
 398 237 422 165 456 116 c 4
 519 23 616 9 656 9 c 0
 765 9 872 91 880 234 c 0
 881 244 881 250 892 250 c 0
 905 250 904 243 904 233 c 0
 904 117 807 -22 644 -22 c 0
 458 -22 296 135 296 342 c 0
EndSplineSet
EndChar
StartChar: mho
Encoding: 8487 8487 128
Width: 1000
Flags: MW
LayerCount: 2
Fore
SplineSet
184 521 m 1
 216 683 l 1
 370 683 l 2
 399 683 402 680 402 662 c 0
 402 524 298 373 298 228 c 0
 298 70 408 1 500 1 c 0
 594 1 702 71 702 228 c 0
 702 375 598 523 598 661 c 0
 598 682 605 683 630 683 c 2
 784 683 l 1
 816 521 l 1
 790 521 l 1
 771 613 778 618 694 618 c 2
 628 618 l 1
 665 477 806 379 806 228 c 0
 806 92 673 -22 500 -22 c 0
 334 -22 194 87 194 229 c 0
 194 379 334 477 372 618 c 1
 302 618 l 2
 223 618 228 615 208 521 c 1
 184 521 l 1
EndSplineSet
EndChar
StartChar: angstrom
Encoding: 8491 8491 120
Width: 1000
Flags: MW
LayerCount: 2
Fore
SplineSet
158 0 m 1
 158 31 l 1
 248 33 260 73 276 121 c 2
 454 632 l 2
 461 654 469 675 476 697 c 1
 417 719 404 771 404 804 c 0
 404 855 440 912 500 913 c 0
 559 913 596 858 596 804 c 0
 596 771 583 719 524 697 c 1
 531 675 539 654 546 633 c 2
 734 90 l 2
 753 37 753 31 838 31 c 2
 842 31 l 1
 842 0 l 1
 778 3 739 3 714 3 c 0
 665 3 617 2 568 0 c 1
 568 31 l 1
 570 31 l 2
 602 31 648 32 648 63 c 0
 648 67 647 72 646 77 c 0
 636 107 603 197 594 228 c 1
 346 228 l 1
 330 176 300 100 300 81 c 0
 300 62 317 33 374 31 c 1
 374 0 l 1
 335 2 295 3 256 3 c 0
 237 3 208 3 158 0 c 1
358 259 m 1
 584 259 l 1
 470 584 l 1
 358 259 l 1
430 805 m 0
 430 730 471 717 500 717 c 0
 528 717 570 731 570 803 c 0
 570 877 529 891 500 891 c 0
 472 891 430 877 430 805 c 0
EndSplineSet
EndChar
StartChar: aleph
Encoding: 8501 8501 264
Width: 1000
Flags: W
LayerCount: 2
Fore
SplineSet
233 602 m 24
 233 649 253 667 268 691 c 1
 275 687 l 1
 274 684 271 670 271 662 c 24
 271 611 292 593 318 567 c 2
 525 368 l 1
 657 544 l 1
 621 570 587 599 557 630 c 1
 599 677 l 1
 632 653 662 627 702 593 c 24
 720 579 728 548 728 517 c 24
 728 489 719 471 719 445 c 1
 711 445 l 1
 707 468 695 487 685 505 c 1
 535 358 l 1
 702 194 l 2
 729 165 751 118 751 66 c 24
 751 40 742 24 741 1 c 1
 734 1 l 1
 720 51 690 102 658 134 c 2
 418 371 l 1
 399 354 370 329 352 309 c 24
 336 291 317 270 317 238 c 0
 317 180 361 158 361 95 c 0
 361 64 347 39 328 26 c 24
 306 8 274 3 246 -3 c 1
 244 5 l 1
 263 16 288 35 288 66 c 0
 288 126 247 159 247 215 c 8
 247 276 293 307 328 334 c 24
 351 352 380 369 409 380 c 1
 273 514 l 2
 253 533 233 566 233 602 c 24
EndSplineSet
Colour: ffff
EndChar
StartChar: arrowboth
Encoding: 8596 8596 269
Width: 1000
Flags: MW
LayerCount: 2
Fore
SplineSet
619 527 m 2
 632 542 l 2
 636 547 644 545 647 542 c 2
 907 312 l 2
 912 308 911 302 907 298 c 2
 647 68 l 2
 642 64 635 65 632 68 c 2
 619 83 l 2
 615 87 616 94 620 97 c 2
 833 285 l 1
 167 285 l 1
 380 97 l 2
 384 93 384 87 381 83 c 2
 368 68 l 2
 364 63 356 65 353 68 c 2
 93 298 l 2
 88 302 89 308 93 312 c 2
 353 542 l 2
 358 546 365 545 368 542 c 2
 381 527 l 2
 385 523 384 516 380 513 c 2
 167 325 l 1
 833 325 l 1
 620 513 l 2
 616 517 616 523 619 527 c 2
EndSplineSet
Colour: ff
EndChar
StartChar: arrowdblright
Encoding: 8658 8658 267
Width: 1000
Flags: MW
LayerCount: 2
Fore
SplineSet
56 175 m 0
 56 194 75 195 90 195 c 2
 798.801368323 195 l 1
 821.16508241 219.020054161 843.725888862 237.316731512 862.635378269 250.28814337 c 1
 844.683985834 262.66946683 822.060616142 280.747003122 799.286867558 305 c 1
 94 305 l 2
 75 305 57 306 56 325 c 0
 56 344 75 345 90 345 c 2
 766.157951199 345 l 1
 735.634635777 386.586616156 704.269084071 445.977685501 693 550 c 1
 733 550 l 1
 755.53421356 372.945464882 855.415305814 290.423705009 943 250 c 1
 848.703420933 205.096867111 755.526756194 124.77018887 732 -50 c 1
 692 -50 l 1
 706.647068639 57.1066894195 736.465247325 113.944337903 766.087455911 155 c 1
 94 155 l 2
 75 155 57 156 56 175 c 0
EndSplineSet
EndChar
StartChar: arrowdblboth
Encoding: 8660 8660 268
Width: 1000
Flags: W
LayerCount: 2
Fore
SplineSet
55 250 m 1
 141.839463471 290.079375887 242.556343608 373.656985492 265 550 c 1
 305 550 l 1
 293.730923386 445.977754329 262.365431074 386.586488089 231.841852795 345 c 1
 766.157951199 345 l 1
 735.634635777 386.586616156 704.269084071 445.977685501 693 550 c 1
 733 550 l 1
 755.53421356 372.945464882 855.415305814 290.423705009 943 250 c 1
 848.703420933 205.096867111 755.526756194 124.77018887 732 -50 c 1
 692 -50 l 1
 706.647068639 57.1066894195 736.465247325 113.944337903 766.087455911 155 c 1
 231.912140979 155 l 1
 261.534519744 113.944428715 291.352934474 57.1066666582 306 -50 c 1
 266 -50 l 1
 242.396506151 125.34024002 149.888389803 204.815213058 55 250 c 1
135.364257812 250.288085938 m 1
 154.274348264 237.316766398 176.834912933 219.020190048 199.198462894 195 c 1
 798.801368323 195 l 1
 821.16508241 219.020054161 843.725888862 237.316731512 862.635378269 250.28814337 c 1
 844.683985834 262.66946683 822.060616142 280.747003122 799.286867558 305 c 1
 198.712985982 305 l 1
 175.939429402 280.747042266 153.315997025 262.669804055 135.364257812 250.288085938 c 1
EndSplineSet
EndChar
StartChar: universal
Encoding: 8704 8704 226
Width: 1000
Flags: W
LayerCount: 2
Fore
SplineSet
221 542 m 0
 221 548 225 554 231 554 c 0
 239 554 241 548 249 530 c 2
 325 364 l 1
 673 364 l 1
 749 530 l 2
 754 541 760 554 769 554 c 0
 774 554 779 548 779 542 c 0
 779 534 773 526 769 518 c 2
 515 -38 l 2
 512 -43 508 -54 499 -54 c 0
 490 -53 487 -45 477 -24 c 2
 231 518 l 2
 227 526 221 535 221 542 c 0
336 341 m 1
 473 42 l 2
 481 23 490 4 499 -16 c 1
 508 4 517 23 525 42 c 2
 662 341 l 1
 336 341 l 1
EndSplineSet
EndChar
StartChar: partialdiff
Encoding: 8706 8706 230
Width: 1000
Flags: W
LayerCount: 2
Fore
SplineSet
718 316 m 0
 692 212 655 137 615 85 c 5
 553 4 481 -22 424 -22 c 0
 313 -22 242 72 275 204 c 0
 307 331 420 427 531 427 c 0
 599 427 623 376 631 328 c 1
 637 352 l 2
 663 455 659 522 642 565 c 0
 617 628 564 641 534 641 c 0
 510 641 467 635 436 601 c 1
 451 601 491 601 480 556 c 0
 472 525 444 510 422 510 c 0
 406 510 378 519 388 558 c 0
 403 618 459 666 542 666 c 0
 670 666 773 537 718 316 c 0
603 226 m 0
 623 304 616 404 526 404 c 0
 510 404 464 404 417 342 c 0
 390 305 377 254 365 205 c 0
 353 157 341 107 349 71 c 0
 364 11 408 6 431 6 c 0
 494 6 539 66 549 81 c 0
 579 128 598 208 603 226 c 0
EndSplineSet
EndChar
StartChar: existential
Encoding: 8707 8707 227
Width: 1000
Flags: W
LayerCount: 2
Fore
SplineSet
247 12 m 0
 247 23 261 23 272 23 c 2
 730 23 l 1
 730 241 l 1
 274 241 l 2
 263 241 247 242 247 252 c 0
 249 264 258 264 267 264 c 2
 730 264 l 1
 730 477 l 1
 276 477 l 2
 263 477 247 477 247 488 c 0
 247 500 263 500 274 500 c 2
 741 500 l 2
 752 500 753 489 753 480 c 2
 753 29 l 2
 753 16 753 0 742 0 c 2
 277 0 l 2
 264 0 247 0 247 12 c 0
EndSplineSet
EndChar
StartChar: emptyset
Encoding: 8709 8709 252
Width: 1000
Flags: W
LayerCount: 2
Fore
SplineSet
250 250 m 0
 250 388 362 500 500 500 c 0
 569 500 632 472 677 427 c 1
 710 460 l 2
 717 467 726.802873169 475.507664623 734.185971538 475.507664623 c 0
 738.834008639 475.507664623 742.941123749 470.71967818 742.941123749 466.432923213 c 0
 742.941123749 459.941123749 735.92249939 452.92249939 730 447 c 2
 692 410 l 1
 728 367 750 311 750 250 c 0
 750 112 638 0 500 0 c 0
 439 0 383 22 340 58 c 1
 294 11 l 2
 289.784243194 6.78424319433 284.087435935 2.07480290409 278.643952813 2.07480290409 c 0
 273.831596376 2.07480290409 268.573997954 6.82760792279 268.573997954 12.1529212088 c 0
 268.573997954 15.8911175387 270.902216386 20.9022163858 278 28 c 2
 323 73 l 1
 278 118 250 181 250 250 c 0
274 250 m 0
 274 188 299 131 340 90 c 1
 661 411 l 1
 620 452 562 477 500 477 c 0
 375 477 274 375 274 250 c 0
357 74 m 1
 396 42 446 23 500 23 c 0
 625 23 728 125 728 250 c 0
 728 304 708 355 676 394 c 1
 357 74 l 1
EndSplineSet
EndChar
StartChar: element
Encoding: 8712 8712 212
Width: 1000
Flags: W
LayerCount: 2
Fore
SplineSet
197 250 m 0
 197 388 309 500 447 500 c 2
 773 500 l 2
 786 499 803 500 803 488 c 0
 803 477 789 477 778 477 c 2
 447 477 l 2
 327 477 227 383 220 264 c 1
 774 264 l 2
 787 264 803 265 803 253 c 0
 803 241 787 241 776 241 c 2
 220 241 l 1
 225 120 325 23 447 23 c 2
 774 23 l 2
 787 23 803 23 803 12 c 0
 803 0 787 0 776 0 c 2
 447 0 l 2
 309 0 197 112 197 250 c 0
EndSplineSet
EndChar
StartChar: notelement
Encoding: 8713 8713 251
Width: 1000
Flags: W
LayerCount: 2
Fore
SplineSet
220 241 m 1
 224 132 306 43 411 26 c 1
 484 241 l 1
 220 241 l 1
220 264 m 1
 492 264 l 1
 564 477 l 1
 447 477 l 2
 327 477 227 383 220 264 c 1
197 250 m 0
 197 388 309 500 447 500 c 2
 572 500 l 1
 614 623 l 2
 616 630 621 648 632 648 c 0
 636 648 642 644 642 636 c 0
 642 632 641 627 640 623 c 2
 598 500 l 1
 773 500 l 2
 786 499 803 500 803 488 c 0
 803 477 789 477 778 477 c 2
 590 477 l 1
 517 264 l 1
 774 264 l 2
 787 264 803 265 803 253 c 0
 803 241 787 241 776 241 c 2
 510 241 l 1
 435 23 l 2
 439 23 443 23 447 23 c 2
 774 23 l 2
 787 23 803 23 803 12 c 0
 803 0 787 0 776 0 c 2
 447 0 l 2
 440 0 434 1 428 1 c 1
 386 -121 l 2
 378 -143 374 -148 366 -148 c 0
 360 -148 358 -142 358 -136 c 0
 358 -133 358 -131 362 -120 c 2
 404 4 l 1
 286 24 197 127 197 250 c 0
EndSplineSet
EndChar
StartChar: suchthat
Encoding: 8715 8715 213
Width: 1000
Flags: W
LayerCount: 2
Fore
SplineSet
197 12 m 0
 197 23 211 23 222 23 c 2
 553 23 l 2
 675 23 775 120 780 241 c 1
 224 241 l 2
 213 241 197 242 197 252 c 0
 199 264 208 264 217 264 c 2
 780 264 l 1
 773 383 673 477 553 477 c 2
 226 477 l 2
 213 477 197 477 197 488 c 0
 197 500 213 500 224 500 c 2
 553 500 l 2
 691 500 803 388 803 250 c 0
 803 112 691 0 553 0 c 2
 227 0 l 2
 214 1 197 0 197 12 c 0
EndSplineSet
EndChar
StartChar: summation
Encoding: 8721 8721 247
Width: 1000
Flags: W
LayerCount: 2
Fore
SplineSet
204 667 m 0
 204 682 215 683 226 683 c 2
 786 683 l 1
 814 458 l 1
 788 458 l 1
 774 564 747 613 686 635 c 0
 648 649 597 652 528 652 c 2
 318 652 l 1
 582 268 l 2
 591 255 596 248 596 242 c 0
 596 235 591 228 580 215 c 2
 248 -158 l 1
 508 -158 l 2
 701 -158 765 -145 788 37 c 1
 814 37 l 1
 786 -200 l 1
 206 -200 l 2
 198 -200 186 -198 186 -188 c 0
 186 -181 193 -174 198 -168 c 2
 522 198 l 1
 214 644 l 2
 209 651 204 659 204 667 c 0
EndSplineSet
EndChar
StartChar: minus
Encoding: 8722 8722 117
Width: 1000
Flags: MW
LayerCount: 2
Fore
SplineSet
169 249 m 0
 169 259 178 261 189 261 c 2
 802 261 l 2
 815 261 831 262 831 250 c 0
 831 239 816 238 805 238 c 2
 803 238 l 2
 797 238 792 239 786 239 c 2
 223 239 l 2
 215 239 208 238 200 238 c 2
 195 238 l 2
 186 238 169 239 169 249 c 0
EndSplineSet
EndChar
StartChar: minusplus
Encoding: 8723 8723 244
Width: 1000
Flags: W
LayerCount: 2
Fore
SplineSet
168 232 m 0
 168 244 176 249 185 251 c 0
 189 252 194 252 198 252 c 2
 480 252 l 1
 480 525 l 1
 196 525 l 1
 172 526 168 537 168 545 c 0
 168 553 173 565 198 565 c 2
 803 565 l 1
 828 564 832 553 832 546 c 0
 832 526 814 525 800 525 c 2
 520 525 l 1
 520 252 l 1
 802 252 l 2
 806 252 810 250 814 251 c 0
 823 253 832 244 832 232 c 0
 832 220 825 215 816 213 c 0
 811 212 806 212 802 212 c 2
 520 212 l 1
 520 -70 l 2
 520 -74 520 -79 519 -84 c 0
 517 -93 512 -100 500 -100 c 0
 489 -100 484 -93 482 -85 c 0
 481 -80 480 -75 480 -70 c 2
 480 212 l 1
 198 212 l 2
 186 212 168 213 168 232 c 0
EndSplineSet
EndChar
StartChar: proportional
Encoding: 8733 8733 258
Width: 1000
Flags: W
LayerCount: 2
Fore
SplineSet
245 250 m 0
 245 337 315 407 402 407 c 0
 468 407 524 366 547 309 c 1
 570 366 627 407 693 407 c 2
 743 407 l 2
 749 407 755 401 755 395 c 0
 755 389 749 384 743 384 c 2
 693 384 l 2
 619 384 559 324 559 250 c 0
 559 176 619 116 693 116 c 2
 743 116 l 2
 749 116 755 110 755 104 c 0
 755 98 749 93 743 93 c 2
 693 93 l 2
 627 93 570 134 547 191 c 1
 524 134 468 93 402 93 c 0
 315 93 245 163 245 250 c 0
268 250 m 0
 268 176 328 116 402 116 c 0
 476 116 536 176 536 250 c 0
 536 324 476 384 402 384 c 0
 328 384 268 324 268 250 c 0
EndSplineSet
EndChar
StartChar: orthogonal
Encoding: 8735 8735 245
Width: 1000
Flags: W
LayerCount: 2
Fore
SplineSet
219 -39 m 2
 219 517 l 2
 219 526 221 537 231 537 c 0
 236 537 243 535 243 517 c 2
 243 -27 l 1
 752 -27 l 2
 765 -27 781 -26 781 -38 c 0
 781 -50 765 -50 754 -50 c 2
 246 -50 l 2
 234 -50 219 -49 219 -39 c 2
EndSplineSet
EndChar
StartChar: angle
Encoding: 8736 8736 228
Width: 1000
Flags: W
LayerCount: 2
Fore
SplineSet
219 -39 m 3
 219 -31 223 -24 227 -18 c 2
 535 515 l 2
 539 521 544 528 550 528 c 0
 555 528 561 523 561 517 c 0
 561 514 560 509 556 503 c 2
 250 -27 l 1
 752 -27 l 2
 765 -27 781 -27 781 -38 c 4
 781 -50 765 -50 754 -50 c 2
 246 -50 l 2
 236 -50 219 -49 219 -39 c 3
EndSplineSet
EndChar
StartChar: parallel
Encoding: 8741 8741 262
Width: 1000
Flags: W
LayerCount: 2
Fore
SplineSet
563 -57 m 0
 563 -52 564 -47 564 -44 c 0
 564 544 l 0
 564 547 563 552 563 557 c 0
 563 568 565 581 575 581 c 0
 584 581 587 567 587 557 c 2
 587 554 l 1
 587 -58 l 0
 587 -69 585 -81 575 -81 c 0
 565 -81 563 -68 563 -57 c 0
413 -57 m 0
 413 -52 414 -47 414 -44 c 0
 414 544 l 0
 414 547 413 552 413 557 c 0
 413 568 415 581 425 581 c 0
 434 581 437 567 437 557 c 2
 437 554 l 1
 437 -58 l 0
 437 -69 435 -81 425 -81 c 0
 415 -81 413 -68 413 -57 c 0
EndSplineSet
EndChar
StartChar: notparallel
Encoding: 8742 8742 263
Width: 1000
Flags: W
LayerCount: 2
Fore
SplineSet
194 79 m 0
 194 86 202 92 210 97 c 0
 214 99 219 101 222 103 c 2
 414 213 l 1
 414 544 l 2
 414 547 414 552 414 557 c 0
 414 568 416 581 426 581 c 0
 434 581 438 566 438 557 c 2
 438 552 l 1
 438 226 l 1
 564 300 l 1
 564 544 l 2
 564 547 564 552 564 557 c 0
 564 568 566 581 576 581 c 0
 584 581 588 566 588 557 c 2
 588 552 l 1
 588 313 l 1
 768 417 l 2
 771 419 774 422 778 424 c 0
 784 427 790 430 796 430 c 0
 801 430 806 427 806 421 c 0
 806 416 803 412 798 408 c 0
 795 406 793 405 790 403 c 2
 588 286 l 1
 588 -58 l 2
 588 -69 586 -81 576 -81 c 0
 566 -81 564 -68 564 -57 c 0
 564 -52 564 -47 564 -44 c 2
 564 273 l 1
 438 200 l 1
 438 -58 l 2
 438 -69 436 -81 426 -81 c 0
 416 -81 414 -68 414 -57 c 0
 414 -52 414 -47 414 -44 c 2
 414 186 l 1
 222 76 l 2
 216 73 209 70 204 70 c 0
 199 70 194 73 194 79 c 0
EndSplineSet
EndChar
StartChar: logicaland
Encoding: 8743 8743 224
Width: 1000
Flags: W
LayerCount: 2
Fore
SplineSet
221 -43 m 0
 221 -35 227 -26 231 -18 c 2
 483 537 l 2
 486 543 490 552 499 553 c 1
 508 552 512 543 515 537 c 2
 769 -18 l 2
 773 -26 779 -35 779 -43 c 0
 779 -48 775 -53 769 -53 c 0
 760 -53 755 -42 749 -30 c 2
 525 458 l 2
 517 477 508 496 499 516 c 1
 490 496 481 477 473 458 c 2
 249 -30 l 2
 241 -48 239 -53 231 -53 c 0
 225 -53 221 -48 221 -43 c 0
EndSplineSet
EndChar
StartChar: logicalor
Encoding: 8744 8744 225
Width: 1000
Flags: W
LayerCount: 2
Fore
SplineSet
221 542 m 0
 221 548 225 554 231 554 c 0
 239 554 241 548 249 530 c 2
 473 42 l 2
 481 23 490 4 499 -16 c 1
 508 4 517 23 525 42 c 2
 749 530 l 2
 754 541 760 554 769 554 c 0
 774 554 779 548 779 542 c 0
 779 534 773 526 769 518 c 2
 515 -38 l 2
 512 -43 508 -54 499 -54 c 0
 490 -53 487 -45 477 -24 c 2
 231 518 l 2
 227 526 221 535 221 542 c 0
EndSplineSet
EndChar
StartChar: integral
Encoding: 8747 8747 236
Width: 1000
Flags: W
LayerCount: 2
Fore
SplineSet
239 -66 m 0
 244 -36 271 -19 294 -19 c 0
 317 -19 337 -37 332 -65 c 0
 327 -94 302 -105 286 -111 c 1
 303 -119 318 -122 330 -122 c 0
 381 -122 401 -61 415 18 c 0
 417 31 419 44 421 57 c 2
 518 604 l 2
 540 728 623 765 673 765 c 0
 730 765 768 732 761 690 c 0
 756 662 731 643 706 643 c 0
 678 643 665 665 669 689 c 0
 674 718 697 729 709 734 c 1
 695 739 682 743 671 743 c 0
 622 743 600 687 585 603 c 2
 482 16 l 2
 462 -97 388 -145 326 -145 c 0
 276 -145 231 -114 239 -66 c 0
EndSplineSet
EndChar
StartChar: integraltrpl
Encoding: 8749 8749 248
Width: 1000
Flags: W
LayerCount: 2
Fore
SplineSet
39 -66 m 0
 44 -36 71 -19 94 -19 c 0
 117 -19 137 -37 132 -65 c 0
 127 -94 102 -105 86 -111 c 1
 103 -119 118 -122 130 -122 c 0
 181 -122 201 -61 215 18 c 0
 217 31 219 44 221 57 c 2
 318 604 l 2
 340 728 423 765 473 765 c 0
 530 765 568 732 561 690 c 0
 556 662 531 643 506 643 c 0
 478 643 465 665 469 689 c 0
 474 718 497 729 509 734 c 1
 495 739 482 743 471 743 c 0
 422 743 400 687 385 603 c 2
 282 16 l 2
 262 -97 188 -145 126 -145 c 0
 76 -145 31 -114 39 -66 c 0
239 -66 m 0
 244 -36 271 -19 294 -19 c 0
 317 -19 337 -37 332 -65 c 0
 327 -94 302 -105 286 -111 c 1
 303 -119 318 -122 330 -122 c 0
 381 -122 401 -61 415 18 c 0
 417 31 419 44 421 57 c 2
 518 604 l 2
 540 728 623 765 673 765 c 0
 730 765 768 732 761 690 c 0
 756 662 731 643 706 643 c 0
 678 643 665 665 669 689 c 0
 674 718 697 729 709 734 c 1
 695 739 682 743 671 743 c 0
 622 743 600 687 585 603 c 2
 482 16 l 2
 462 -97 388 -145 326 -145 c 0
 276 -145 231 -114 239 -66 c 0
439 -66 m 0
 444 -36 471 -19 494 -19 c 0
 517 -19 537 -37 532 -65 c 0
 527 -94 502 -105 486 -111 c 1
 503 -119 518 -122 530 -122 c 0
 581 -122 601 -61 615 18 c 0
 617 31 619 44 621 57 c 2
 718 604 l 2
 740 728 823 765 873 765 c 0
 930 765 968 732 961 690 c 0
 956 662 931 643 906 643 c 0
 878 643 865 665 869 689 c 0
 874 718 897 729 909 734 c 1
 895 739 882 743 871 743 c 0
 822 743 800 687 785 603 c 2
 682 16 l 2
 662 -97 588 -145 526 -145 c 0
 476 -145 431 -114 439 -66 c 0
EndSplineSet
EndChar
StartChar: contourintegral
Encoding: 8750 8750 257
Width: 1000
Flags: W
LayerCount: 2
Fore
SplineSet
272 -72 m 0
 272 -38 297 -19 322 -19 c 0
 344 -19 366 -35 366 -60 c 0
 366 -92 340 -104 324 -111 c 1
 342 -119 356 -122 368 -122 c 0
 419 -122 433 -61 440 18 c 2
 452 151 l 1
 389 172 344 230 344 300 c 0
 344 379 403 444 479 455 c 1
 492 604 l 2
 503 728 584 765 634 765 c 0
 689 765 728 734 728 694 c 0
 728 663 703 643 678 643 c 0
 652 643 636 663 636 685 c 0
 636 716 659 729 672 734 c 1
 658 739 645 743 634 743 c 0
 585 743 568 687 560 603 c 2
 546 451 l 1
 611 432 658 372 658 300 c 0
 658 219 598 153 519 144 c 1
 508 16 l 2
 498 -97 428 -145 366 -145 c 0
 318 -145 272 -117 272 -72 c 0
368 300 m 0
 368 243 403 194 454 175 c 1
 477 432 l 1
 415 421 368 366 368 300 c 0
521 167 m 1
 586 176 636 233 636 300 c 0
 636 359 597 409 544 427 c 1
 521 167 l 1
EndSplineSet
EndChar
StartChar: therefore
Encoding: 8756 8756 211
Width: 1000
Flags: W
LayerCount: 2
Fore
SplineSet
284 53 m 0
 284 82 309 106 338 106 c 0
 367 106 390 82 390 53 c 0
 390 24 367 0 338 0 c 0
 309 0 284 24 284 53 c 0
448 378 m 0
 448 407 471 431 500 431 c 0
 529 431 554 407 554 378 c 0
 554 349 529 325 500 325 c 0
 471 325 448 349 448 378 c 0
610 53 m 0
 610 82 633 106 662 106 c 0
 691 106 716 82 716 53 c 0
 716 24 691 0 662 0 c 0
 633 0 610 24 610 53 c 0
EndSplineSet
EndChar
StartChar: because
Encoding: 8757 8757 235
Width: 1000
Flags: W
LayerCount: 2
Fore
SplineSet
284 378 m 0
 284 407 309 431 338 431 c 0
 367 431 390 407 390 378 c 0
 390 349 367 325 338 325 c 0
 309 325 284 349 284 378 c 0
448 53 m 0
 448 82 471 106 500 106 c 0
 529 106 554 82 554 53 c 0
 554 24 529 0 500 0 c 0
 471 0 448 24 448 53 c 0
610 378 m 0
 610 407 633 431 662 431 c 0
 691 431 716 407 716 378 c 0
 716 349 691 325 662 325 c 0
 633 325 610 349 610 378 c 0
EndSplineSet
EndChar
StartChar: reversedtilde
Encoding: 8765 8765 259
Width: 1000
Flags: W
LayerCount: 2
Fore
SplineSet
198 250 m 0
 198 337 267 407 354 407 c 0
 360 407 366 402 366 396 c 0
 366 390 360 384 354 384 c 0
 280 384 220 324 220 250 c 0
 220 176 280 116 354 116 c 0
 428 116 488 176 488 250 c 0
 488 337 559 407 646 407 c 0
 733 407 802 337 802 250 c 0
 802 163 733 93 646 93 c 0
 640 93 634 99 634 105 c 0
 634 111 640 116 646 116 c 0
 720 116 780 176 780 250 c 0
 780 324 720 384 646 384 c 0
 572 384 512 324 512 250 c 0
 512 163 441 93 354 93 c 0
 267 93 198 163 198 250 c 0
EndSplineSet
EndChar
StartChar: asymptequal
Encoding: 8771 8771 239
Width: 1000
Flags: W
LayerCount: 2
Fore
SplineSet
169 127 m 1
 171 139 180 139 189 139 c 2
 802 139 l 2
 815 139 831 140 831 128 c 0
 831 116 815 116 804 116 c 2
 196 116 l 2
 185 116 169 117 169 127 c 1
170 327 m 1
 203 365 306 407 370 407 c 0
 440 407 559 359 629 359 c 0
 677 359 776 381 802 407 c 1
 819 392 l 1
 787 353 680 313 619 313 c 0
 549 313 430 360 360 360 c 0
 313 360 213 338 187 313 c 1
 170 327 l 1
EndSplineSet
EndChar
StartChar: congruent
Encoding: 8773 8773 240
Width: 1000
Flags: W
LayerCount: 2
Fore
SplineSet
169 52 m 1
 171 64 180 64 189 64 c 2
 802 64 l 2
 815 64 831 65 831 53 c 0
 831 41 815 41 804 41 c 2
 196 41 l 2
 185 41 169 42 169 52 c 1
169 247 m 0
 169 252 172 259 190 259 c 2
 801 259 l 1
 814 258 831 259 831 247 c 0
 831 236 817 236 806 236 c 2
 189 236 l 2
 180 236 169 237 169 247 c 0
170 427 m 1
 203 465 306 507 370 507 c 0
 440 507 559 459 629 459 c 0
 677 459 776 481 802 507 c 1
 819 492 l 1
 787 453 680 413 619 413 c 0
 549 413 430 460 360 460 c 0
 313 460 213 438 187 413 c 1
 170 427 l 1
EndSplineSet
EndChar
StartChar: approxequal
Encoding: 8776 8776 241
Width: 1000
Flags: W
LayerCount: 2
Fore
SplineSet
176 127 m 1
 209 165 312 207 376 207 c 0
 446 207 564 159 634 159 c 0
 682 159 782 181 808 207 c 1
 824 192 l 1
 792 153 685 113 624 113 c 0
 554 113 436 160 366 160 c 0
 319 160 218 138 192 113 c 1
 176 127 l 1
176 327 m 1
 209 365 312 407 376 407 c 0
 446 407 564 359 634 359 c 0
 682 359 782 381 808 407 c 1
 824 392 l 1
 792 353 685 313 624 313 c 0
 554 313 436 360 366 360 c 0
 319 360 218 338 192 313 c 1
 176 327 l 1
EndSplineSet
EndChar
StartChar: approxequalorimage
Encoding: 8786 8786 126
Width: 1000
Flags: MW
LayerCount: 2
Fore
SplineSet
169 152 m 1
 171 164 180 164 189 164 c 2
 802 164 l 2
 815 164 831 165 831 153 c 0
 831 141 815 141 804 141 c 2
 196 141 l 2
 185 141 169 142 169 152 c 1
169 347 m 0
 169 352 172 359 190 359 c 2
 801 359 l 1
 814 358 831 359 831 347 c 0
 831 336 817 336 806 336 c 2
 189 336 l 2
 180 336 169 337 169 347 c 0
637 -15 m 0
 637 20 666 47 700 47 c 0
 733 47 763 21 763 -15 c 0
 763 -52 733 -78 700 -78 c 0
 663 -78 637 -47 637 -15 c 0
237 515 m 0
 237 550 266 578 300 578 c 0
 333 578 363 552 363 515 c 0
 363 479 333 453 300 453 c 0
 263 453 237 484 237 515 c 0
EndSplineSet
EndChar
StartChar: notequal
Encoding: 8800 8800 122
Width: 1000
Flags: MW
LayerCount: 2
Fore
SplineSet
169 347 m 0
 169 352 172 359 190 359 c 2
 524 359 l 1
 614 623 l 2
 616 630 621 648 632 648 c 0
 636 648 642 644 642 636 c 0
 642 632 641 627 640 623 c 2
 550 359 l 1
 801 359 l 1
 814 358 831 359 831 347 c 0
 831 336 817 336 806 336 c 2
 542 336 l 1
 483 164 l 1
 802 164 l 2
 815 164 831 165 831 153 c 0
 831 141 815 141 804 141 c 2
 475 141 l 1
 386 -121 l 2
 378 -143 374 -148 366 -148 c 0
 360 -148 358 -142 358 -136 c 0
 358 -133 358 -131 362 -120 c 2
 451 141 l 1
 196 141 l 2
 185 141 169 142 169 152 c 1
 171 164 180 164 189 164 c 2
 458 164 l 1
 517 336 l 1
 189 336 l 2
 180 336 169 337 169 347 c 0
EndSplineSet
EndChar
StartChar: equivalence
Encoding: 8801 8801 125
Width: 1000
Flags: MW
LayerCount: 2
Fore
SplineSet
169 102 m 1
 171 114 180 114 189 114 c 2
 802 114 l 2
 815 114 831 115 831 103 c 0
 831 91 815 91 804 91 c 2
 196 91 l 2
 185 91 169 92 169 102 c 1
169 252 m 1
 171 264 180 264 189 264 c 2
 802 264 l 2
 815 264 831 265 831 253 c 0
 831 241 815 241 804 241 c 2
 196 241 l 2
 185 241 169 242 169 252 c 1
169 397 m 0
 169 402 172 409 190 409 c 2
 801 409 l 1
 814 408 831 409 831 397 c 0
 831 386 817 386 806 386 c 2
 189 386 l 2
 180 386 169 387 169 397 c 0
EndSplineSet
EndChar
StartChar: notequivalence
Encoding: 8802 8802 238
Width: 1000
Flags: W
LayerCount: 2
Fore
SplineSet
169 102 m 0
 171 114 180 114 189 114 c 2
 441 114 l 1
 484 241 l 1
 196 241 l 2
 185 241 169 242 169 252 c 0
 171 264 180 264 189 264 c 2
 492 264 l 1
 534 386 l 1
 189 386 l 2
 180 386 169 387 169 397 c 0
 169 402 172 409 190 409 c 2
 541 409 l 1
 614 623 l 2
 616 630 621 648 632 648 c 0
 636 648 642 644 642 636 c 0
 642 632 641 627 640 623 c 2
 567 409 l 1
 801 409 l 2
 814 408 831 409 831 397 c 0
 831 386 817 386 806 386 c 2
 559 386 l 1
 517 264 l 1
 802 264 l 2
 815 264 831 265 831 253 c 0
 831 241 815 241 804 241 c 2
 510 241 l 1
 466 114 l 1
 802 114 l 2
 815 114 831 115 831 103 c 0
 831 91 815 91 804 91 c 2
 458 91 l 1
 386 -121 l 2
 378 -143 374 -148 366 -148 c 0
 360 -148 358 -142 358 -136 c 0
 358 -133 358 -131 362 -120 c 2
 434 91 l 1
 196 91 l 2
 185 91 169 92 169 102 c 0
EndSplineSet
EndChar
StartChar: lessoverequal
Encoding: 8806 8806 123
Width: 1000
Flags: MW
LayerCount: 2
Fore
SplineSet
169 -98 m 1
 171 -86 180 -86 189 -86 c 2
 802 -86 l 2
 815 -86 831 -85 831 -97 c 0
 831 -109 815 -109 804 -109 c 2
 196 -109 l 2
 185 -109 169 -108 169 -98 c 1
169 67 m 0
 169 72 172 79 190 79 c 2
 801 79 l 1
 814 78 831 79 831 67 c 0
 831 56 817 56 806 56 c 2
 189 56 l 2
 180 56 169 57 169 67 c 0
197 400 m 1
 198 409 207 414 213 416 c 2
 768 624 l 2
 776 627 785 629 793 629 c 0
 798 629 803 625 803 619 c 0
 803 610 793 605 780 600 c 2
 312 426 l 2
 293 418 264 409 244 400 c 1
 264 391 293 381 312 374 c 2
 780 200 l 2
 799 193 803 189 803 181 c 0
 803 175 798 171 793 171 c 0
 785 171 776 172 768 176 c 2
 213 384 l 2
 207 386 198 391 197 400 c 1
EndSplineSet
EndChar
StartChar: greateroverequal
Encoding: 8807 8807 124
Width: 1000
Flags: MW
LayerCount: 2
Fore
SplineSet
169 -98 m 1
 171 -86 180 -86 189 -86 c 2
 802 -86 l 2
 815 -86 831 -85 831 -97 c 0
 831 -109 815 -109 804 -109 c 2
 196 -109 l 2
 185 -109 169 -108 169 -98 c 1
169 67 m 0
 169 72 172 79 190 79 c 2
 801 79 l 1
 814 78 831 79 831 67 c 0
 831 56 817 56 806 56 c 2
 189 56 l 2
 180 56 169 57 169 67 c 0
196 181 m 0
 196 189 201 193 220 200 c 2
 698 379 l 2
 717 386 736 391 756 400 c 1
 736 409 717 413 698 421 c 2
 220 600 l 2
 209 604 196 610 196 619 c 0
 196 624 202 629 208 629 c 0
 216 629 224 627 232 624 c 2
 788 416 l 2
 793 414 804 409 804 400 c 0
 803 391 796 386 774 378 c 2
 232 176 l 2
 224 172 215 171 208 171 c 0
 202 171 196 175 196 181 c 0
EndSplineSet
EndChar
StartChar: muchless
Encoding: 8810 8810 232
Width: 1000
Flags: W
LayerCount: 2
Fore
SplineSet
455 250 m 1
 456 259 461 263 465 266 c 2
 822 519 l 2
 827 523 833 529 838 529 c 0
 841 529 845 525 845 519 c 0
 845 510 838 506 830 500 c 2
 516 276 l 2
 504 268 492 259 479 250 c 1
 492 241 504 232 516 224 c 2
 830 0 l 2
 842 -8 845 -11 845 -19 c 0
 845 -25 841 -29 838 -29 c 0
 833 -29 827 -23 822 -19 c 2
 465 234 l 2
 461 237 456 241 455 250 c 1
155 250 m 1
 156 259 161 263 165 266 c 2
 522 519 l 2
 527 523 533 529 538 529 c 0
 541 529 545 525 545 519 c 0
 545 510 538 506 530 500 c 2
 216 276 l 2
 204 268 192 259 179 250 c 1
 192 241 204 232 216 224 c 2
 530 0 l 2
 542 -8 545 -11 545 -19 c 0
 545 -25 541 -29 538 -29 c 0
 533 -29 527 -23 522 -19 c 2
 165 234 l 2
 161 237 156 241 155 250 c 1
EndSplineSet
EndChar
StartChar: muchgreater
Encoding: 8811 8811 233
Width: 1000
Flags: W
LayerCount: 2
Fore
SplineSet
455 -19 m 0
 455 -11 458 -8 470 0 c 2
 784 224 l 2
 796 232 808 241 821 250 c 1
 808 259 796 268 784 276 c 2
 470 500 l 2
 463 505 455 510 455 519 c 0
 455 524 458 529 462 529 c 0
 467 529 473 523 478 519 c 2
 835 266 l 2
 838 263 845 259 845 250 c 0
 844 241 841 238 827 228 c 2
 478 -19 l 2
 473 -23 467 -29 462 -29 c 0
 458 -29 455 -25 455 -19 c 0
155 -19 m 0
 155 -11 158 -8 170 0 c 2
 484 224 l 2
 496 232 508 241 521 250 c 1
 508 259 496 268 484 276 c 2
 170 500 l 2
 163 505 155 510 155 519 c 0
 155 524 158 529 162 529 c 0
 167 529 173 523 178 519 c 2
 535 266 l 2
 538 263 545 259 545 250 c 0
 544 241 541 238 527 228 c 2
 178 -19 l 2
 173 -23 167 -29 162 -29 c 0
 158 -29 155 -25 155 -19 c 0
EndSplineSet
EndChar
StartChar: lessorequivalent
Encoding: 8818 8818 249
Width: 1000
Flags: W
LayerCount: 2
Fore
SplineSet
176 -73 m 1
 209 -35 312 7 376 7 c 0
 446 7 564 -41 634 -41 c 0
 682 -41 782 -19 808 7 c 1
 824 -8 l 1
 792 -47 685 -87 624 -87 c 0
 554 -87 436 -40 366 -40 c 0
 319 -40 218 -62 192 -87 c 1
 176 -73 l 1
202 300 m 1
 203 309 212 314 218 316 c 2
 774 519 l 2
 782 522 790 529 798 529 c 0
 803 529 808 525 808 519 c 0
 808 510 799 505 786 500 c 2
 298 321 l 2
 278 316 260 309 240 300 c 1
 260 291 279 287 298 279 c 2
 786 100 l 2
 805 93 808 89 808 81 c 0
 808 75 803 71 798 71 c 0
 790 71 782 78 774 81 c 2
 218 284 l 2
 212 287 203 291 202 300 c 1
EndSplineSet
EndChar
StartChar: greaterorequivalent
Encoding: 8819 8819 250
Width: 1000
Flags: W
LayerCount: 2
Fore
SplineSet
176 -73 m 1
 209 -35 312 7 376 7 c 0
 446 7 564 -41 634 -41 c 0
 682 -41 782 -19 808 7 c 1
 824 -8 l 1
 792 -47 685 -87 624 -87 c 0
 554 -87 436 -40 366 -40 c 0
 319 -40 218 -62 192 -87 c 1
 176 -73 l 1
202 81 m 0
 202 89 208 93 226 100 c 2
 714 279 l 2
 733 286 752 291 772 300 c 1
 752 309 733 313 714 321 c 2
 226 500 l 2
 215 504 202 510 202 519 c 0
 202 524 208 529 214 529 c 0
 222 529 230 522 238 519 c 2
 794 316 l 2
 799 313 810 309 810 300 c 0
 809 291 802 286 780 278 c 2
 238 81 l 2
 230 77 221 71 214 71 c 0
 208 71 202 75 202 81 c 0
EndSplineSet
EndChar
StartChar: lessorgreater
Encoding: 8822 8822 242
Width: 1000
Flags: W
LayerCount: 2
Fore
SplineSet
196 -119 m 0
 196 -111 201 -107 220 -100 c 2
 698 79 l 2
 717 86 736 91 756 100 c 1
 736 109 717 113 698 121 c 2
 220 300 l 2
 209 304 196 310 196 319 c 0
 196 324 202 329 208 329 c 0
 216 329 224 327 232 324 c 2
 788 116 l 2
 793 114 804 109 804 100 c 0
 803 91 796 86 774 78 c 2
 232 -124 l 2
 224 -128 215 -129 208 -129 c 0
 202 -129 196 -125 196 -119 c 0
198 500 m 1
 199 509 208 514 214 516 c 2
 768 724 l 2
 776 727 786 729 794 729 c 0
 799 729 804 725 804 719 c 0
 804 710 793 705 780 700 c 2
 312 526 l 2
 293 518 264 509 244 500 c 1
 264 491 293 481 312 474 c 2
 780 300 l 2
 799 293 804 289 804 281 c 0
 804 275 799 271 794 271 c 0
 786 271 776 272 768 276 c 2
 214 484 l 2
 208 486 199 491 198 500 c 1
EndSplineSet
EndChar
StartChar: greaterorless
Encoding: 8823 8823 243
Width: 1000
Flags: W
LayerCount: 2
Fore
SplineSet
196 281 m 0
 196 289 201 293 220 300 c 2
 698 479 l 2
 717 486 736 491 756 500 c 1
 736 509 717 513 698 521 c 2
 220 700 l 2
 209 704 196 710 196 719 c 0
 196 724 202 729 208 729 c 0
 216 729 224 727 232 724 c 2
 788 516 l 2
 793 514 804 509 804 500 c 0
 803 491 796 486 774 478 c 2
 232 276 l 2
 224 272 215 271 208 271 c 0
 202 271 196 275 196 281 c 0
198 100 m 5
 199 109 208 114 214 116 c 6
 768 324 l 6
 776 327 786 329 794 329 c 4
 799 329 804 325 804 319 c 4
 804 310 793 305 780 300 c 6
 312 126 l 6
 293 118 264 109 244 100 c 5
 264 91 293 81 312 74 c 6
 780 -100 l 6
 799 -107 804 -111 804 -119 c 4
 804 -125 799 -129 794 -129 c 4
 786 -129 776 -128 768 -124 c 6
 214 84 l 6
 208 86 199 91 198 100 c 5
EndSplineSet
EndChar
StartChar: subset
Encoding: 8834 8834 216
Width: 1000
Flags: W
LayerCount: 2
Fore
SplineSet
197 250 m 0
 197 388 309 500 447 500 c 2
 773 500 l 1
 786 499 803 500 803 488 c 0
 803 477 789 477 778 477 c 2
 447 477 l 2
 322 477 220 375 220 250 c 0
 220 125 322 23 447 23 c 0
 774 23 l 2
 787 23 803 23 803 12 c 0
 803 0 787 0 776 0 c 2
 447 0 l 2
 309 0 197 112 197 250 c 0
EndSplineSet
EndChar
StartChar: superset
Encoding: 8835 8835 217
Width: 1000
Flags: W
LayerCount: 2
Fore
SplineSet
197 12 m 0
 197 23 211 23 222 23 c 2
 553 23 l 2
 678 23 780 125 780 250 c 0
 780 375 678 477 553 477 c 0
 226 477 l 2
 213 477 197 477 197 488 c 0
 197 500 213 500 224 500 c 2
 553 500 l 2
 691 500 803 388 803 250 c 0
 803 112 691 0 553 0 c 2
 227 0 l 1
 214 1 197 0 197 12 c 0
EndSplineSet
EndChar
StartChar: notsubset
Encoding: 8836 8836 220
Width: 1000
Flags: W
LayerCount: 2
Fore
SplineSet
197 250 m 0
 197 388 309 500 447 500 c 2
 572 500 l 1
 614 623 l 2
 616 630 621 648 632 648 c 0
 636 648 642 644 642 636 c 0
 642 632 641 627 640 623 c 2
 598 500 l 1
 773 500 l 2
 786 499 803 500 803 488 c 0
 803 477 789 477 778 477 c 2
 590 477 l 1
 435 23 l 2
 439 23 443 23 447 23 c 2
 774 23 l 2
 787 23 803 23 803 12 c 0
 803 0 787 0 776 0 c 2
 447 0 l 2
 440 0 434 1 428 1 c 1
 386 -121 l 2
 378 -143 374 -148 366 -148 c 0
 360 -148 358 -142 358 -136 c 0
 358 -133 358 -131 362 -120 c 2
 404 4 l 1
 286 24 197 127 197 250 c 0
220 250 m 0
 220 137 303 43 411 26 c 1
 564 477 l 1
 447 477 l 2
 322 477 220 375 220 250 c 0
EndSplineSet
EndChar
StartChar: notsuperset
Encoding: 8837 8837 221
Width: 1000
Flags: W
LayerCount: 2
Fore
SplineSet
197 12 m 0
 197 23 211 23 222 23 c 2
 410 23 l 1
 563 477 l 2
 560 477 556 477 553 477 c 2
 226 477 l 2
 213 477 197 477 197 488 c 0
 197 500 213 500 224 500 c 2
 553 500 l 2
 559 500 565 499 571 499 c 1
 613 623 l 2
 615 630 620 648 631 648 c 0
 635 648 641 644 641 636 c 0
 641 632 640 627 639 623 c 2
 596 496 l 1
 714 476 803 373 803 250 c 0
 803 112 691 0 553 0 c 2
 426 0 l 1
 385 -121 l 2
 377 -143 373 -148 365 -148 c 0
 359 -148 357 -142 357 -136 c 0
 357 -133 357 -131 361 -120 c 2
 402 -0 l 1
 227 0 l 2
 214 1 197 0 197 12 c 0
434 23 m 1
 553 23 l 2
 678 23 780 125 780 250 c 0
 780 363 696 457 588 474 c 1
 434 23 l 1
EndSplineSet
EndChar
StartChar: supersetorequal
Encoding: 8839 8839 215
Width: 1000
Flags: W
LayerCount: 2
Fore
SplineSet
169 -48 m 0
 171 -36 180 -36 189 -36 c 2
 802 -36 l 2
 815 -36 831 -35 831 -47 c 0
 831 -59 815 -59 804 -59 c 2
 196 -59 l 2
 185 -59 169 -58 169 -48 c 0
198 112 m 0
 198 123 212 123 223 123 c 2
 554 123 l 2
 679 123 781 175 781 300 c 0
 781 425 679 477 554 477 c 2
 227 477 l 2
 214 477 198 477 198 488 c 0
 198 500 214 500 225 500 c 2
 554 500 l 2
 692 500 804 438 804 300 c 0
 804 162 692 100 554 100 c 2
 228 100 l 2
 215 101 198 100 198 112 c 0
EndSplineSet
EndChar
StartChar: subsetnotequal
Encoding: 8842 8842 222
Width: 1000
Flags: W
LayerCount: 2
Fore
SplineSet
169 -48 m 0
 171 -36 180 -36 189 -36 c 2
 503 -36 l 1
 550 100 l 1
 447 100 l 2
 309 100 197 162 197 300 c 0
 197 438 309 500 447 500 c 2
 773 500 l 2
 786 499 803 500 803 488 c 0
 803 477 789 477 778 477 c 2
 447 477 l 2
 322 477 220 425 220 300 c 0
 220 175 322 123 447 123 c 2
 774 123 l 2
 787 123 803 123 803 112 c 0
 803 100 787 100 776 100 c 2
 576 100 l 1
 529 -36 l 1
 802 -36 l 2
 815 -36 831 -35 831 -47 c 0
 831 -59 815 -59 804 -59 c 2
 521 -59 l 1
 481 -173 l 2
 473 -195 469 -200 461 -200 c 0
 455 -200 453 -194 453 -188 c 0
 453 -185 453 -183 457 -172 c 2
 496 -59 l 1
 196 -59 l 2
 185 -59 169 -58 169 -48 c 0
EndSplineSet
EndChar
StartChar: supersetnotequal
Encoding: 8843 8843 223
Width: 1000
Flags: W
LayerCount: 2
Fore
SplineSet
169 -48 m 0
 171 -36 180 -36 189 -36 c 2
 478 -36 l 1
 525 100 l 1
 228 100 l 2
 215 101 198 100 198 112 c 0
 198 123 212 123 223 123 c 2
 554 123 l 2
 679 123 781 175 781 300 c 0
 781 425 679 477 554 477 c 2
 227 477 l 2
 214 477 198 477 198 488 c 0
 198 500 214 500 225 500 c 2
 554 500 l 2
 692 500 804 438 804 300 c 0
 804 162 692 100 554 100 c 2
 551 100 l 1
 504 -36 l 1
 802 -36 l 2
 815 -36 831 -35 831 -47 c 0
 831 -59 815 -59 804 -59 c 2
 496 -59 l 1
 456 -173 l 2
 448 -195 444 -200 436 -200 c 0
 430 -200 428 -194 428 -188 c 0
 428 -185 428 -183 432 -172 c 2
 471 -59 l 1
 196 -59 l 2
 185 -59 169 -58 169 -48 c 0
EndSplineSet
EndChar
StartChar: circleplus
Encoding: 8853 8853 253
Width: 1000
Flags: W
LayerCount: 2
Fore
SplineSet
150 250 m 0
 150 443 307 600 500 600 c 0
 693 600 850 443 850 250 c 0
 850 57 693 -100 500 -100 c 0
 307 -100 150 57 150 250 c 0
173 239 m 1
 179 67 317 -71 489 -77 c 1
 489 239 l 1
 173 239 l 1
173 261 m 1
 489 261 l 1
 489 577 l 1
 317 571 179 433 173 261 c 1
512 -77 m 1
 684 -71 821 67 827 239 c 1
 512 239 l 1
 512 -77 l 1
512 261 m 1
 827 261 l 1
 821 433 684 571 512 577 c 1
 512 261 l 1
EndSplineSet
EndChar
StartChar: circleminus
Encoding: 8854 8854 254
Width: 1000
Flags: W
LayerCount: 2
Fore
SplineSet
150 250 m 0
 150 443 307 600 500 600 c 0
 693 600 850 443 850 250 c 0
 850 57 693 -100 500 -100 c 0
 307 -100 150 57 150 250 c 0
173 239 m 1
 179 63 323 -77 500 -77 c 0
 677 -77 821 63 827 239 c 1
 173 239 l 1
173 261 m 1
 827 261 l 1
 821 437 677 577 500 577 c 0
 323 577 179 437 173 261 c 1
EndSplineSet
EndChar
StartChar: circlemultiply
Encoding: 8855 8855 255
Width: 1000
Flags: W
LayerCount: 2
Fore
SplineSet
150 250 m 0
 150 443 307 600 500 600 c 0
 693 600 850 443 850 250 c 0
 850 57 693 -100 500 -100 c 0
 307 -100 150 57 150 250 c 0
173 250 m 0
 173 163 207 84 262 26 c 1
 484 248 l 1
 260 472 l 1
 206 414 173 336 173 250 c 0
276 488 m 1
 500 264 l 1
 724 489 l 1
 666 544 587 577 500 577 c 0
 413 577 334 543 276 488 c 1
277 10 m 1
 335 -44 414 -77 500 -77 c 0
 586 -77 664 -44 722 10 c 1
 500 233 l 1
 277 10 l 1
516 249 m 1
 739 26 l 1
 794 84 827 163 827 250 c 0
 827 336 794 415 740 473 c 1
 516 249 l 1
EndSplineSet
EndChar
StartChar: circledivide
Encoding: 8856 8856 256
Width: 1000
Flags: W
LayerCount: 2
Fore
SplineSet
150 250 m 0
 150 443 307 600 500 600 c 0
 693 600 850 443 850 250 c 0
 850 57 693 -100 500 -100 c 0
 307 -100 150 57 150 250 c 0
173 250 m 0
 173 163 207 84 262 26 c 1
 725 488 l 1
 666 543 587 577 500 577 c 0
 319 577 173 431 173 250 c 0
278 10 m 1
 336 -44 414 -77 500 -77 c 0
 681 -77 827 69 827 250 c 0
 827 336 794 415 740 473 c 1
 278 10 l 1
EndSplineSet
EndChar
StartChar: squareplus
Encoding: 8862 8862 265
Width: 1000
Flags: W
LayerCount: 2
Fore
SplineSet
169 -69 m 2
 169 571 l 2
 169 577 172 581 178 581 c 2
 819 581 l 2
 826 581 831 576 831 571 c 2
 831 -69 l 2
 831 -75 825 -80 819 -80 c 2
 183 -80 l 2
 174 -80 169 -75 169 -69 c 2
192 -58 m 1
 489 -58 l 1
 489 239 l 1
 192 239 l 1
 192 -58 l 1
512 -58 m 1
 808 -58 l 1
 808 239 l 1
 512 239 l 1
 512 -58 l 1
808 261 m 1
 808 560 l 1
 512 560 l 1
 512 261 l 1
 808 261 l 1
489 560 m 1
 192 560 l 1
 192 261 l 1
 489 261 l 1
 489 560 l 1
EndSplineSet
EndChar
StartChar: squaremultiply
Encoding: 8864 8864 266
Width: 1000
Flags: W
LayerCount: 2
Fore
SplineSet
169 -69 m 2
 169 571 l 2
 169 577 172 581 178 581 c 2
 819 581 l 2
 826 581 831 576 831 571 c 2
 831 -69 l 2
 831 -75 825 -80 819 -80 c 2
 183 -80 l 2
 174 -80 169 -75 169 -69 c 2
192 -42 m 1
 484 250 l 1
 192 542 l 1
 192 -42 l 1
206 560 m 1
 500 266 l 1
 794 560 l 1
 206 560 l 1
808 541 m 1
 516 249 l 1
 808 -42 l 1
 808 541 l 1
792 -58 m 1
 501 234 l 1
 209 -58 l 1
 792 -58 l 1
EndSplineSet
EndChar
StartChar: righttriangle
Encoding: 8895 8895 246
Width: 1000
Flags: W
LayerCount: 2
Fore
SplineSet
219 -39 m 3
 219 -30 227 -25 232 -20 c 2
 753 528 l 2
 758 533 763 537 771 537 c 3
 776 537 781 533 781 517 c 2
 781 -38 l 2
 781 -44 775 -50 769 -50 c 2
 246 -50 l 2
 233 -50 219 -50 219 -39 c 3
259 -27 m 1
 757 -27 l 1
 757 497 l 1
 259 -27 l 1
EndSplineSet
EndChar
StartChar: lessequalgreater
Encoding: 8922 8922 260
Width: 1000
Flags: W
LayerCount: 2
Fore
SplineSet
169 252 m 1
 171 264 180 264 189 264 c 2
 802 264 l 2
 815 264 831 265 831 253 c 0
 831 241 815 241 804 241 c 2
 196 241 l 2
 185 241 169 242 169 252 c 1
196 -94 m 0
 196 -86 201 -82 220 -75 c 0
 756 50 l 1
 220 175 l 0
 209 179 196 185 196 194 c 0
 196 199 202 204 208 204 c 0
 216 204 224 202 232 199 c 2
 788 66 l 2
 793 65 804 59 804 50 c 0
 803 41 796 36 774 28 c 2
 232 -99 l 2
 223 -101 215 -104 208 -104 c 0
 202 -104 196 -100 196 -94 c 0
198 450 m 1
 199 459 208 465 214 466 c 2
 768 599 l 2
 776 603 786 604 794 604 c 0
 799 604 804 600 804 594 c 0
 804 585 793 580 780 575 c 0
 244 450 l 1
 780 325 l 0
 799 318 804 314 804 306 c 0
 804 300 799 296 794 296 c 0
 786 296 777 299 768 301 c 2
 214 434 l 2
 208 436 199 441 198 450 c 1
EndSplineSet
EndChar
StartChar: greaterequalless
Encoding: 8923 8923 261
Width: 1000
Flags: W
LayerCount: 2
Fore
SplineSet
169 252 m 1
 171 264 180 264 189 264 c 2
 802 264 l 2
 815 264 831 265 831 253 c 0
 831 241 815 241 804 241 c 2
 196 241 l 2
 185 241 169 242 169 252 c 1
196 306 m 0
 196 314 201 318 220 325 c 0
 756 450 l 1
 220 575 l 0
 209 579 196 585 196 594 c 0
 196 599 202 604 208 604 c 0
 216 604 224 602 232 599 c 2
 788 466 l 2
 793 465 804 459 804 450 c 0
 803 441 796 436 774 428 c 2
 232 301 l 2
 223 299 215 296 208 296 c 0
 202 296 196 300 196 306 c 0
198 50 m 1
 199 59 208 65 214 66 c 2
 768 199 l 2
 776 203 786 204 794 204 c 0
 799 204 804 200 804 194 c 0
 804 185 793 180 780 175 c 0
 244 50 l 1
 780 -75 l 0
 799 -82 804 -86 804 -94 c 0
 804 -100 799 -104 794 -104 c 0
 786 -104 777 -101 768 -99 c 2
 214 34 l 2
 208 36 199 41 198 50 c 1
EndSplineSet
EndChar
StartChar: hvhorizform
Encoding: 9473 9473 135
Width: 1000
Flags: W
LayerCount: 2
Fore
SplineSet
0 227 m 1
 0 373 l 1
 1000 373 l 1
 1000 227 l 1
 0 227 l 1
EndSplineSet
EndChar
StartChar: ltvertform
Encoding: 9474 9474 136
Width: 1000
Flags: W
LayerCount: 2
Fore
SplineSet
477 -200 m 1
 477 800 l 1
 523 800 l 1
 523 -200 l 1
 477 -200 l 1
EndSplineSet
EndChar
StartChar: ltdashtriphorizform
Encoding: 9476 9476 138
Width: 1000
VWidth: 940
Flags: W
LayerCount: 2
Fore
SplineSet
60 277 m 1
 60 323 l 1
 274 323 l 1
 274 277 l 1
 60 277 l 1
393 277 m 1
 393 323 l 1
 607 323 l 1
 607 277 l 1
 393 277 l 1
726 277 m 1
 726 323 l 1
 940 323 l 1
 940 277 l 1
 726 277 l 1
EndSplineSet
EndChar
StartChar: hvdashtripvertform
Encoding: 9479 9479 141
Width: 1000
VWidth: 940
Flags: W
LayerCount: 2
Fore
SplineSet
427 74 m 1
 573 74 l 1
 573 -140 l 1
 427 -140 l 1
 427 74 l 1
427 193 m 1
 427 407 l 1
 573 407 l 1
 573 193 l 1
 427 193 l 1
427 526 m 1
 427 740 l 1
 573 740 l 1
 573 526 l 1
 427 526 l 1
EndSplineSet
EndChar
StartChar: ltdashquadhorizform
Encoding: 9480 9480 142
Width: 1000
Flags: W
LayerCount: 2
Fore
SplineSet
41 277 m 1
 41 323 l 1
 208 323 l 1
 208 277 l 1
 41 277 l 1
292 277 m 1
 292 323 l 1
 458 323 l 1
 458 277 l 1
 292 277 l 1
541 277 m 1
 541 323 l 1
 708 323 l 1
 708 277 l 1
 541 277 l 1
791 277 m 1
 791 323 l 1
 958 323 l 1
 958 277 l 1
 791 277 l 1
EndSplineSet
EndChar
StartChar: ltdashquadvertform
Encoding: 9482 9482 144
Width: 1000
Flags: W
LayerCount: 2
Fore
SplineSet
477 9 m 1
 523 9 l 1
 523 -158 l 1
 477 -158 l 1
 477 9 l 1
477 92 m 1
 477 259 l 1
 523 259 l 1
 523 92 l 1
 477 92 l 1
477 342 m 1
 477 508 l 1
 523 508 l 1
 523 342 l 1
 477 342 l 1
477 592 m 1
 477 759 l 1
 523 759 l 1
 523 592 l 1
 477 592 l 1
EndSplineSet
EndChar
StartChar: hvdashquadvertform
Encoding: 9483 9483 145
Width: 1000
Flags: W
LayerCount: 2
Fore
SplineSet
427 9 m 1
 573 9 l 1
 573 -158 l 1
 427 -158 l 1
 427 9 l 1
427 92 m 1
 427 259 l 1
 573 259 l 1
 573 92 l 1
 427 92 l 1
427 342 m 1
 427 508 l 1
 573 508 l 1
 573 342 l 1
 427 342 l 1
427 592 m 1
 427 759 l 1
 573 759 l 1
 573 592 l 1
 427 592 l 1
EndSplineSet
EndChar
StartChar: ltdnrtform
Encoding: 9484 9484 146
Width: 1000
Flags: W
LayerCount: 2
Fore
SplineSet
477 -200 m 1
 477 323 l 1
 1000 323 l 1
 1000 277 l 1
 523 277 l 1
 523 -200 l 1
 477 -200 l 1
EndSplineSet
EndChar
StartChar: dnhvrtltform
Encoding: 9486 9486 148
Width: 1000
Flags: W
LayerCount: 2
Fore
SplineSet
427 -200 m 1
 427 323 l 1
 1000 323 l 1
 1000 277 l 1
 573 277 l 1
 573 -200 l 1
 427 -200 l 1
EndSplineSet
EndChar
StartChar: hvdnrtform
Encoding: 9487 9487 149
Width: 1000
VWidth: 940
Flags: W
LayerCount: 2
Fore
SplineSet
427 -200 m 1
 427 373 l 1
 1000 373 l 1
 1000 227 l 1
 573 227 l 1
 573 -200 l 1
 427 -200 l 1
EndSplineSet
EndChar
StartChar: ltdnleftform
Encoding: 9488 9488 150
Width: 1000
VWidth: 940
Flags: W
LayerCount: 2
Fore
SplineSet
0 277 m 1
 0 323 l 1
 523 323 l 1
 523 -200 l 1
 477 -200 l 1
 477 277 l 1
 0 277 l 1
EndSplineSet
EndChar
StartChar: dnltlefthvform
Encoding: 9489 9489 151
Width: 1000
Flags: W
LayerCount: 2
Fore
SplineSet
0 227 m 1
 0 373 l 1
 523 373 l 1
 523 -200 l 1
 477 -200 l 1
 477 227 l 1
 0 227 l 1
EndSplineSet
EndChar
StartChar: dnhvleftltform
Encoding: 9490 9490 152
Width: 1000
Flags: W
LayerCount: 2
Fore
SplineSet
0 277 m 1
 0 323 l 1
 573 323 l 1
 573 -200 l 1
 427 -200 l 1
 427 277 l 1
 0 277 l 1
EndSplineSet
EndChar
StartChar: upltrthvform
Encoding: 9493 9493 155
Width: 1000
Flags: W
LayerCount: 2
Fore
SplineSet
477 227 m 1
 477 800 l 1
 523 800 l 1
 523 373 l 1
 1000 373 l 1
 1000 227 l 1
 477 227 l 1
EndSplineSet
EndChar
StartChar: uphvrtltform
Encoding: 9494 9494 156
Width: 1000
Flags: W
LayerCount: 2
Fore
SplineSet
427 277 m 1
 427 800 l 1
 573 800 l 1
 573 323 l 1
 1000 323 l 1
 1000 277 l 1
 427 277 l 1
EndSplineSet
EndChar
StartChar: ltupleftform
Encoding: 9496 9496 158
Width: 1000
VWidth: 940
Flags: W
LayerCount: 2
Fore
SplineSet
0 277 m 1
 0 323 l 1
 477 323 l 1
 477 800 l 1
 523 800 l 1
 523 277 l 1
 0 277 l 1
EndSplineSet
EndChar
StartChar: upltlefthvform
Encoding: 9497 9497 159
Width: 1000
VWidth: 940
Flags: W
LayerCount: 2
Fore
SplineSet
0 227 m 1
 0 373 l 1
 477 373 l 1
 477 800 l 1
 523 800 l 1
 523 227 l 1
 0 227 l 1
EndSplineSet
EndChar
StartChar: hvupleftform
Encoding: 9499 9499 161
Width: 1000
Flags: W
LayerCount: 2
Fore
SplineSet
0 227 m 1
 0 373 l 1
 427 373 l 1
 427 800 l 1
 573 800 l 1
 573 227 l 1
 0 227 l 1
EndSplineSet
EndChar
StartChar: vertltrthvform
Encoding: 9501 9501 163
Width: 1000
VWidth: 940
Flags: W
LayerCount: 2
Fore
SplineSet
477 -200 m 1
 477 800 l 1
 523 800 l 1
 523 373 l 1
 1000 373 l 1
 1000 227 l 1
 523 227 l 1
 523 -200 l 1
 477 -200 l 1
EndSplineSet
EndChar
StartChar: upltrtdnhvform
Encoding: 9506 9506 168
Width: 1000
Flags: W
LayerCount: 2
Fore
SplineSet
427 -200 m 1
 427 373 l 1
 477 373 l 1
 477 800 l 1
 523 800 l 1
 523 373 l 1
 1000 373 l 1
 1000 227 l 1
 573 227 l 1
 573 -200 l 1
 427 -200 l 1
EndSplineSet
EndChar
StartChar: ltvertleftform
Encoding: 9508 9508 170
Width: 1000
Flags: W
LayerCount: 2
Fore
SplineSet
0 277 m 1
 0 323 l 1
 477 323 l 1
 477 800 l 1
 523 800 l 1
 523 -200 l 1
 477 -200 l 1
 477 277 l 1
 0 277 l 1
EndSplineSet
EndChar
StartChar: vtltlefthvform
Encoding: 9509 9509 171
Width: 1000
VWidth: 940
Flags: W
LayerCount: 2
Fore
SplineSet
0 227 m 1
 0 373 l 1
 477 373 l 1
 477 800 l 1
 523 800 l 1
 523 -200 l 1
 477 -200 l 1
 477 227 l 1
 0 227 l 1
EndSplineSet
EndChar
StartChar: verthvleftltform
Encoding: 9512 9512 174
Width: 1000
Flags: W
LayerCount: 2
Fore
SplineSet
0 277 m 1
 0 323 l 1
 427 323 l 1
 427 800 l 1
 573 800 l 1
 573 -200 l 1
 427 -200 l 1
 427 277 l 1
 0 277 l 1
EndSplineSet
EndChar
StartChar: dnltleftuphvform
Encoding: 9513 9513 175
Width: 1000
Flags: W
LayerCount: 2
Fore
SplineSet
0 227 m 1
 0 373 l 1
 427 373 l 1
 427 800 l 1
 573 800 l 1
 573 227 l 1
 523 227 l 1
 523 -200 l 1
 477 -200 l 1
 477 227 l 1
 0 227 l 1
EndSplineSet
EndChar
StartChar: upltleftdnhvform
Encoding: 9514 9514 176
Width: 1000
Flags: W
LayerCount: 2
Fore
SplineSet
0 227 m 1
 0 373 l 1
 477 373 l 1
 477 800 l 1
 523 800 l 1
 523 373 l 1
 573 373 l 1
 573 -200 l 1
 427 -200 l 1
 427 227 l 1
 0 227 l 1
EndSplineSet
EndChar
StartChar: rthvleftdnltform
Encoding: 9518 9518 180
Width: 1000
VWidth: 940
Flags: W
LayerCount: 2
Fore
SplineSet
0 277 m 1
 0 323 l 1
 477 323 l 1
 477 373 l 1
 1000 373 l 1
 1000 227 l 1
 523 227 l 1
 523 -200 l 1
 477 -200 l 1
 477 277 l 1
 0 277 l 1
EndSplineSet
EndChar
StartChar: uphvhorizltform
Encoding: 9528 9528 190
Width: 1000
VWidth: 940
Flags: W
LayerCount: 2
Fore
SplineSet
0 277 m 1
 0 323 l 1
 427 323 l 1
 427 800 l 1
 573 800 l 1
 573 323 l 1
 1000 323 l 1
 1000 277 l 1
 0 277 l 1
EndSplineSet
EndChar
StartChar: rtltleftuphvform
Encoding: 9529 9529 191
Width: 1000
VWidth: 940
Flags: W
LayerCount: 2
Fore
SplineSet
0 227 m 1
 0 373 l 1
 427 373 l 1
 427 800 l 1
 573 800 l 1
 573 323 l 1
 1000 323 l 1
 1000 277 l 1
 573 277 l 1
 573 227 l 1
 0 227 l 1
EndSplineSet
EndChar
StartChar: ltverthorizform
Encoding: 9532 9532 194
Width: 1000
VWidth: 940
Flags: W
LayerCount: 2
Fore
SplineSet
0 277 m 1
 0 323 l 1
 477 323 l 1
 477 800 l 1
 523 800 l 1
 523 323 l 1
 1000 323 l 1
 1000 277 l 1
 523 277 l 1
 523 -200 l 1
 477 -200 l 1
 477 277 l 1
 0 277 l 1
EndSplineSet
EndChar
StartChar: rtltleftverthvform
Encoding: 9545 9545 207
Width: 1000
VWidth: 940
Flags: W
LayerCount: 2
Fore
SplineSet
0 227 m 1
 0 373 l 1
 427 373 l 1
 427 800 l 1
 573 800 l 1
 573 323 l 1
 1000 323 l 1
 1000 277 l 1
 573 277 l 1
 573 -200 l 1
 427 -200 l 1
 427 227 l 1
 0 227 l 1
EndSplineSet
EndChar
StartChar: hvverthorizform
Encoding: 9547 9547 209
Width: 1000
Flags: W
LayerCount: 2
Fore
SplineSet
0 227 m 1
 0 373 l 1
 427 373 l 1
 427 800 l 1
 573 800 l 1
 573 373 l 1
 1000 373 l 1
 1000 227 l 1
 573 227 l 1
 573 -200 l 1
 427 -200 l 1
 427 227 l 1
 0 227 l 1
EndSplineSet
EndChar
StartChar: zero.slash
Encoding: 63032 63032 121
Width: 1000
Flags: MW
LayerCount: 2
Fore
SplineSet
244 320 m 0
 244 400 249 478 281 547 c 1
 322 640 411 666 501 666 c 0
 564 666 670 650 716 554 c 0
 751 480 756 400 756 320 c 0
 756 241 751 163 719 94 c 0
 675 -1 580 -22 499 -22 c 0
 425 -22 332 -2 289 79 c 0
 248 155 244 245 244 320 c 0
327 332 m 0
 327 273 327 181 338 121 c 0
 341 107 344 95 348 84 c 1
 630 600 l 1
 588 636 532 644 499 644 c 0
 461 644 354 635 335 516 c 0
 327 462 327 396 327 332 c 0
362 55 m 5
 364 51 368 47 372 44 c 0
 410 11 461 0 499 0 c 0
 567 0 647 30 662 125 c 0
 673 189 673 257 673 332 c 0
 673 395 673 471 663 527 c 0
 659 546 654 562 648 575 c 1
 362 55 l 5
EndSplineSet
EndChar
